<?xml version="1.0" encoding="UTF-8" standalone="no"?>
<!-- Created with Inkscape (http://www.inkscape.org/) -->

<svg
   xmlns:dc="http://purl.org/dc/elements/1.1/"
   xmlns:cc="http://creativecommons.org/ns#"
   xmlns:rdf="http://www.w3.org/1999/02/22-rdf-syntax-ns#"
   xmlns:svg="http://www.w3.org/2000/svg"
   xmlns="http://www.w3.org/2000/svg"
   xmlns:sodipodi="http://sodipodi.sourceforge.net/DTD/sodipodi-0.dtd"
   xmlns:inkscape="http://www.inkscape.org/namespaces/inkscape"
   version="1.1"
   width="1920"
   height="1080"
   id="svg2"
   xml:space="preserve"
   inkscape:version="0.48.4 r9939"
   sodipodi:docname="MakerHub Interface for Nest Thumbnail.svg"
   inkscape:export-filename="C:\github\makerhub\Website\Media\Images\Libraries\Nest\export\MakerHub Interface for Nest Thumbnail 460.png"
   inkscape:export-xdpi="21.559999"
   inkscape:export-ydpi="21.559999"><sodipodi:namedview
   pagecolor="#919191"
   bordercolor="#666666"
   borderopacity="1"
   objecttolerance="10"
   gridtolerance="10"
   guidetolerance="10"
   inkscape:pageopacity="1"
   inkscape:pageshadow="2"
   inkscape:window-width="1920"
   inkscape:window-height="1017"
   id="namedview3019"
   showgrid="false"
   inkscape:zoom="0.49148422"
   inkscape:cx="580.82082"
   inkscape:cy="411.85618"
   inkscape:window-x="3832"
   inkscape:window-y="-8"
   inkscape:window-maximized="1"
   inkscape:current-layer="layer3"
   showguides="true"
   inkscape:guide-bbox="true"><sodipodi:guide
     orientation="1,0"
     position="1017.3267,1098.7128"
     id="guide3029" /><sodipodi:guide
     orientation="1,0"
     position="100,488.3168"
     id="guide4310" /></sodipodi:namedview><metadata
   id="metadata8"><rdf:RDF><cc:Work
       rdf:about=""><dc:format>image/svg+xml</dc:format><dc:type
         rdf:resource="http://purl.org/dc/dcmitype/StillImage" /><dc:title></dc:title></cc:Work></rdf:RDF></metadata><defs
   id="defs6"><linearGradient
   id="linearGradient4153"><stop
     style="stop-color:#828282;stop-opacity:1;"
     offset="0"
     id="stop4155" /><stop
     style="stop-color:#919191;stop-opacity:1;"
     offset="1"
     id="stop4157" /></linearGradient><clipPath
   id="clipPath18"><path
     d="M 0,734.812 0,0 l 2465.98,0 0,734.812 -2465.98,0 z"
     inkscape:connector-curvature="0"
     id="path20" /></clipPath>
	
	
	
	
	
	
	
	
	
	
	
	
	
	
	
</defs><g
   id="g3899"
   transform="matrix(3.2707529,0,0,-3.2707529,1058.7202,1033.0507)"><g
     transform="scale(0.1,0.1)"
     id="g12"><g
       id="g14"><g
         clip-path="url(#clipPath18)"
         id="g16"><path
           d="m 0,393.57 0,184.832 17.457,0 0,-169.945 99.09,0 0,-14.887 -116.547,0"
           inkscape:connector-curvature="0"
           id="path22"
           style="fill:#fab40a;fill-opacity:1;fill-rule:nonzero;stroke:none" /><path
           d="m 222.309,463.395 c -6.504,-2.743 -13.09,-4.54 -19.766,-5.391 -6.676,-0.856 -13.348,-1.539 -20.023,-2.051 -11.805,-0.859 -21.012,-3.512 -27.598,-7.961 -6.586,-4.453 -9.883,-11.211 -9.883,-20.281 0,-4.109 0.813,-7.66 2.441,-10.652 1.622,-2.997 3.758,-5.481 6.415,-7.446 2.652,-1.968 5.734,-3.425 9.246,-4.363 3.504,-0.941 7.058,-1.41 10.652,-1.41 6.156,0 12.148,0.769 17.969,2.308 5.816,1.543 10.996,3.891 15.535,7.059 4.527,3.164 8.168,7.188 10.906,12.066 2.735,4.879 4.106,10.657 4.106,17.329 l 0,20.793 z m -25.926,7.703 c 2.91,0.336 6.375,0.855 10.398,1.539 4.02,0.683 7.317,1.625 9.883,2.824 2.566,1.195 4.148,3.211 4.746,6.031 0.602,2.824 0.899,5.434 0.899,7.828 0,7.871 -2.524,14.336 -7.575,19.387 -5.046,5.043 -13.562,7.57 -25.539,7.57 -5.308,0 -10.187,-0.472 -14.633,-1.41 -4.449,-0.941 -8.339,-2.566 -11.679,-4.879 -3.336,-2.308 -6.074,-5.386 -8.215,-9.242 -2.145,-3.851 -3.555,-8.687 -4.238,-14.5 l -15.66,0 c 0.511,7.863 2.308,14.582 5.39,20.149 3.082,5.558 7.063,10.093 11.942,13.605 4.875,3.508 10.527,6.074 16.941,7.699 6.418,1.625 13.223,2.442 20.41,2.442 6.676,0 12.965,-0.731 18.867,-2.18 5.903,-1.457 11.039,-3.766 15.403,-6.938 4.363,-3.168 7.785,-7.402 10.265,-12.703 2.481,-5.308 3.727,-11.804 3.727,-19.511 l 0,-72.395 c 0,-5.988 1.062,-9.797 3.207,-11.418 2.14,-1.633 6.461,-1.246 12.965,1.152 l 0,-12.066 c -1.199,-0.344 -2.953,-0.855 -5.266,-1.539 -2.309,-0.684 -4.578,-1.027 -6.801,-1.027 -2.394,0 -4.707,0.257 -6.933,0.769 -2.563,0.348 -4.617,1.156 -6.157,2.442 -1.542,1.281 -2.785,2.824 -3.726,4.621 -0.942,1.797 -1.582,3.757 -1.922,5.902 -0.348,2.137 -0.516,4.402 -0.516,6.801 -6.507,-7.188 -13.949,-12.664 -22.332,-16.426 -8.386,-3.766 -17.457,-5.648 -27.211,-5.648 -5.82,0 -11.425,0.769 -16.816,2.308 -5.391,1.543 -10.137,3.938 -14.25,7.188 -4.105,3.254 -7.355,7.23 -9.754,11.937 -2.398,4.707 -3.594,10.309 -3.594,16.817 0,22.589 15.489,35.937 46.469,40.043 l 21.305,2.828"
           inkscape:connector-curvature="0"
           id="path24"
           style="fill:#fab40a;fill-opacity:1;fill-rule:nonzero;stroke:none" /><path
           d="m 290.082,460.57 c 0,-8.047 0.98,-15.531 2.953,-22.461 1.965,-6.933 4.832,-12.925 8.602,-17.968 3.758,-5.051 8.468,-9.032 14.117,-11.938 5.648,-2.914 12.062,-4.363 19.258,-4.363 6.496,0 12.488,1.156 17.968,3.465 5.473,2.308 10.266,5.687 14.375,10.136 4.106,4.45 7.313,9.887 9.625,16.305 2.313,6.414 3.465,13.816 3.465,22.207 0.34,8.383 -0.343,16.211 -2.05,23.485 -1.715,7.277 -4.454,13.648 -8.219,19.124 -3.766,5.477 -8.598,9.797 -14.5,12.965 -5.906,3.164 -12.801,4.75 -20.664,4.75 -7.024,0 -13.313,-1.496 -18.875,-4.492 -5.563,-2.996 -10.27,-7.019 -14.117,-12.062 -3.852,-5.055 -6.805,-10.957 -8.856,-17.715 -2.055,-6.766 -3.082,-13.906 -3.082,-21.438 z m 0,-67 -15.402,0 0,184.832 15.402,0 0,-73.164 c 4.961,8.215 11.766,14.418 20.41,18.614 8.641,4.191 17.668,6.289 27.082,6.289 10.098,0 18.871,-1.922 26.313,-5.778 7.445,-3.851 13.609,-8.98 18.484,-15.402 4.879,-6.418 8.512,-13.906 10.91,-22.461 2.395,-8.562 3.594,-17.457 3.594,-26.699 0,-9.758 -1.113,-18.91 -3.336,-27.465 -2.227,-8.563 -5.773,-15.965 -10.652,-22.207 -4.879,-6.25 -11.086,-11.168 -18.614,-14.762 -7.535,-3.594 -16.683,-5.39 -27.464,-5.39 -4.286,0 -8.649,0.597 -13.098,1.796 -4.453,1.2 -8.77,2.911 -12.965,5.129 -4.191,2.231 -8.047,5.012 -11.551,8.348 -3.507,3.34 -6.379,7.227 -8.597,11.68 l -0.516,0 0,-23.36"
           inkscape:connector-curvature="0"
           id="path26"
           style="fill:#fab40a;fill-opacity:1;fill-rule:nonzero;stroke:none" /><path
           d="m 410.738,578.402 18.227,0 55.707,-164.297 55.449,164.297 18.231,0 -64.18,-184.832 -19.254,0 -64.18,184.832"
           inkscape:connector-curvature="0"
           id="path28"
           style="fill:#fab40a;fill-opacity:1;fill-rule:nonzero;stroke:none" /><path
           d="m 584.785,393.57 17.457,0 0,184.832 -17.457,0 0,-184.832 z"
           inkscape:connector-curvature="0"
           id="path30"
           style="fill:#fab40a;fill-opacity:1;fill-rule:nonzero;stroke:none" /><path
           d="m 644.859,393.57 0,184.832 122.961,0 0,-14.886 -105.508,0 0,-66.746 95.243,0 0,-14.891 -95.243,0 0,-73.422 108.079,0 0,-14.887 -125.532,0"
           inkscape:connector-curvature="0"
           id="path32"
           style="fill:#fab40a;fill-opacity:1;fill-rule:nonzero;stroke:none" /><path
           d="m 941.617,418.215 0.516,0 40.305,160.187 17.972,0 -48.523,-184.832 -19.254,0 -42.871,163.27 -0.516,0 -42.867,-163.27 -19.254,0 -47.75,184.832 17.457,0 39.789,-160.187 0.512,0 42.871,160.187 19.512,0 42.101,-160.187"
           inkscape:connector-curvature="0"
           id="path34"
           style="fill:#fab40a;fill-opacity:1;fill-rule:nonzero;stroke:none" /><path
           d="m 239.762,347.234 101.843,0 0,-338.72619 -65.953,0 0,229.10919 c 0,6.586 0.075,15.817 0.231,27.692 0.152,11.871 0.23,21.031 0.23,27.461 L 211.926,8.50781 l -68.797,0 L 79.3984,292.77 c 0,-6.43 0.0743,-15.59 0.2305,-27.461 0.1523,-11.875 0.2305,-21.106 0.2305,-27.692 l 0,-229.10919 -65.9532,0 0,338.72619 102.9918,0 61.661,-266.3434 61.203,266.3434"
           inkscape:connector-curvature="0"
           id="path36"
           style="fill:#ffffff;fill-opacity:1;fill-rule:nonzero;stroke:none" /><path
           d="m 531.664,130.305 c -4.191,-2.621 -8.426,-4.719 -12.699,-6.328 -4.274,-1.606 -10.133,-3.11 -17.582,-4.473 l -14.914,-2.766 c -13.973,-2.453 -24.008,-5.437 -30.102,-8.957 -10.316,-5.972 -15.472,-15.2537 -15.472,-27.8083 0,-11.1954 3.148,-19.2696 9.453,-24.2422 6.293,-4.9766 13.961,-7.4766 22.98,-7.4766 14.313,0 27.496,4.1406 39.555,12.4219 12.055,8.2578 18.312,23.3554 18.781,45.2622 l 0,24.367 z m -40.047,30.562 c 12.192,1.528 20.906,3.442 26.156,5.742 9.415,3.989 14.122,10.176 14.122,18.618 0,10.25 -3.61,17.339 -10.833,21.25 -7.218,3.906 -17.82,5.859 -31.792,5.859 -15.684,0 -26.793,-3.828 -33.313,-11.484 -4.664,-5.668 -7.769,-13.332 -9.316,-22.993 l -63.2,0 c 1.383,21.914 7.539,39.914 18.461,54.004 17.391,22.071 47.239,33.102 89.559,33.102 27.539,0 52,-5.438 73.394,-16.317 21.383,-10.882 32.079,-31.414 32.079,-61.589 l 0,-114.9028 c 0,-7.9687 0.152,-17.6132 0.461,-28.9531 0.457,-8.5859 1.753,-14.4023 3.906,-17.4726 2.14,-3.0625 5.359,-5.586 9.652,-7.5782 l 0,-9.64449 -71.242,0 c -1.992,5.04689 -3.371,9.80079 -4.137,14.23439 -0.769,4.4531 -1.379,9.5039 -1.84,15.1797 C 524.645,28.1133 514.16,19.7578 502.301,12.8594 488.121,4.75781 472.094,0.691406 454.219,0.691406 c -22.809,0 -41.645,6.464844 -56.516,19.414094 -14.871,12.9531 -22.305,31.289 -22.305,55.039 0,30.7935 11.961,53.0855 35.879,66.8755 13.121,7.5 32.418,12.875 57.883,16.085 l 22.457,2.762"
           inkscape:connector-curvature="0"
           id="path38"
           style="fill:#ffffff;fill-opacity:1;fill-rule:nonzero;stroke:none" /><path
           d="m 644.047,346.082 64.348,0 0,-182.73 82.605,94.492 81.445,0 -89.777,-93.324 93.254,-156.01219 -79.711,0 -60.688,107.01219 -27.128,-28.1958 0,-78.81639 -64.348,0 0,337.57419"
           inkscape:connector-curvature="0"
           id="path40"
           style="fill:#ffffff;fill-opacity:1;fill-rule:nonzero;stroke:none" /><path
           d="m 962.32,197.336 c -9.258,-9.531 -15.07,-22.465 -17.449,-38.774 l 112.839,0 c -1.2,17.383 -7.01,30.579 -17.45,39.583 -10.44,9.003 -23.39,13.503 -38.84,13.503 -16.815,0 -29.85,-4.773 -39.1,-14.312 z m 97.98,56.578 c 17.47,-7.824 31.9,-20.176 43.28,-37.051 10.26,-14.883 16.92,-32.144 19.96,-51.797 1.77,-11.504 2.49,-28.074 2.16,-49.707 l -182.438,0 c 1.019,-25.1246 9.75,-42.7418 26.195,-52.8473 10.008,-6.289 22.043,-9.4375 36.113,-9.4375 14.92,0 27.04,3.8281 36.37,11.5039 5.08,4.1328 9.58,9.875 13.48,17.2305 l 66.86,0 C 1120.52,66.9414 1112.43,51.8555 1098,36.5312 1075.56,12.1797 1044.15,0 1003.76,0 c -33.33,0 -62.744,10.2734 -88.229,30.8086 -25.48,20.5469 -38.222,53.9883 -38.222,100.2934 0,43.39 11.5,76.664 34.507,99.816 23.004,23.152 52.864,34.734 89.574,34.734 21.8,0 41.44,-3.914 58.91,-11.738"
           inkscape:connector-curvature="0"
           id="path42"
           style="fill:#ffffff;fill-opacity:1;fill-rule:nonzero;stroke:none" /><path
           d="m 1288.56,264.848 c 0.84,-0.078 2.71,-0.196 5.62,-0.344 l 0,-67.102 c -4.13,0.457 -7.81,0.762 -11.02,0.918 -3.22,0.149 -5.83,0.227 -7.81,0.227 -26.36,0 -44.06,-8.574 -53.09,-25.735 -5.06,-9.66 -7.58,-24.523 -7.58,-44.582 l 0,-119.72219 -65.96,0 0,250.48019 62.51,0 0,-43.668 c 10.11,16.7 18.91,28.118 26.42,34.246 12.26,10.262 28.19,15.399 47.8,15.399 1.22,0 2.26,-0.039 3.11,-0.117"
           inkscape:connector-curvature="0"
           id="path44"
           style="fill:#ffffff;fill-opacity:1;fill-rule:nonzero;stroke:none" /><path
           d="m 1327.97,8.50781 0,338.72619 70.33,0 0,-129.148 131.68,0 0,129.148 70.32,0 0,-338.72619 -70.32,0 0,151.21119 -131.68,0 0,-151.21119 -70.33,0"
           inkscape:connector-curvature="0"
           id="path46"
           style="fill:#ffffff;fill-opacity:1;fill-rule:nonzero;stroke:none" /><path
           d="m 1718.88,258.988 0,-150.98 c 0,-14.2463 1.68,-24.9728 5.03,-32.1799 5.95,-12.7148 17.61,-19.0703 34.99,-19.0703 22.26,0 37.5,9.0352 45.73,27.1211 4.27,9.8047 6.4,22.7541 6.4,38.8361 l 0,136.273 66.42,0 0,-250.48019 -63.66,0 0,35.38669 c -0.61,-0.7695 -2.13,-3.0664 -4.58,-6.8906 -2.45,-3.8398 -5.35,-7.207 -8.71,-10.1172 -10.23,-9.1914 -20.12,-15.4687 -29.67,-18.85154 -9.56,-3.35547 -20.75,-5.0586 -33.58,-5.0586 -36.97,0 -61.86,13.33984 -74.71,40.00004 -7.17,14.707 -10.76,36.3789 -10.76,65.0314 l 0,150.98 67.1,0"
           inkscape:connector-curvature="0"
           id="path48"
           style="fill:#ffffff;fill-opacity:1;fill-rule:nonzero;stroke:none" /><path
           d="m 2090.83,76.3008 c 9.42,13.6328 14.14,31.5512 14.14,53.7652 0,17.778 -2.32,32.485 -6.96,44.122 -8.8,22.062 -25.02,33.085 -48.65,33.085 -23.94,0 -40.4,-10.796 -49.36,-32.402 -4.63,-11.48 -6.95,-26.348 -6.95,-44.566 0,-21.457 4.79,-39.2308 14.37,-53.3245 9.58,-14.0977 24.17,-21.1407 43.8,-21.1407 16.98,0 30.19,6.8164 39.61,20.461 z m 54.74,152.5862 c 18.74,-23.75 28.11,-54.383 28.11,-91.922 0,-38.9181 -9.24,-71.172 -27.72,-96.7502 -18.47,-25.5859 -44.28,-38.37886 -77.38,-38.37886 -20.79,0 -37.5,4.13281 -50.13,12.41016 -7.54,4.9023 -15.7,13.4805 -24.48,25.7422 l 0,-31.48049 -64.57,0 0,338.26519 65.49,0 0,-120.418 c 8.33,11.641 17.5,20.532 27.53,26.657 11.86,7.664 26.98,11.492 45.33,11.492 33.14,0 59.09,-11.871 77.82,-35.617"
           inkscape:connector-curvature="0"
           id="path50"
           style="fill:#ffffff;fill-opacity:1;fill-rule:nonzero;stroke:none" /><path
           d="m 2170.18,380.23 10.33,-80.171 c 1.2,-9.297 9.11,-16.254 18.49,-16.254 l 91.46,0 c 9.37,0 17.29,6.957 18.49,16.254 l 10.33,80.171 -74.55,43.04 -74.55,-43.04"
           inkscape:connector-curvature="0"
           id="path52"
           style="fill:#f8a30d;fill-opacity:1;fill-rule:nonzero;stroke:none" /><path
           d="m 2319.28,638.469 -10.33,80.093 c -1.2,9.293 -9.12,16.25 -18.49,16.25 l -91.47,0 c -9.37,0 -17.28,-6.957 -18.48,-16.25 l -10.33,-80.093 74.55,-43.039 74.55,43.039"
           inkscape:connector-curvature="0"
           id="path54"
           style="fill:#f8a30d;fill-opacity:1;fill-rule:nonzero;stroke:none" /><path
           d="m 2393.95,509.348 64.68,49.254 c 7.46,5.683 9.54,16.031 4.84,24.156 l -45.8,79.203 c -4.69,8.113 -14.67,11.48 -23.31,7.867 l -75.08,-31.359 0,-86.082 74.67,-43.039"
           inkscape:connector-curvature="0"
           id="path56"
           style="fill:#f79110;fill-opacity:1;fill-rule:nonzero;stroke:none" /><path
           d="m 2095.76,509.348 -64.6,-49.262 c -7.45,-5.68 -9.52,-16.012 -4.84,-24.129 l 45.65,-79.184 c 4.68,-8.128 14.68,-11.503 23.34,-7.882 l 74.87,31.339 0,86.079 -74.42,43.039"
           inkscape:connector-curvature="0"
           id="path58"
           style="fill:#f79110;fill-opacity:1;fill-rule:nonzero;stroke:none" /><path
           d="m 2319.59,552.598 0,86.078 -74.55,-43.039 74.55,-43.039"
           inkscape:connector-curvature="0"
           id="path60"
           style="fill:#fab40a;fill-opacity:1;fill-rule:nonzero;stroke:none" /><path
           d="m 2170.18,638.469 -74.84,31.336 c -8.66,3.625 -18.66,0.25 -23.34,-7.879 l -45.68,-79.192 c -4.68,-8.113 -2.61,-18.445 4.84,-24.125 l 64.57,-49.261 74.45,43.039 0,86.082"
           inkscape:connector-curvature="0"
           id="path62"
           style="fill:#fab40a;fill-opacity:1;fill-rule:nonzero;stroke:none" /><path
           d="m 2319.28,466.309 0,-86.079 75.1,-31.363 c 8.65,-3.613 18.63,-0.242 23.32,7.871 l 45.77,79.2 c 4.7,8.124 2.62,18.472 -4.84,24.156 l -64.72,49.254 -74.63,-43.039"
           inkscape:connector-curvature="0"
           id="path64"
           style="fill:#fab40a;fill-opacity:1;fill-rule:nonzero;stroke:none" /><path
           d="m 2245.04,423.477 74.55,-43.039 0,86.082 -74.55,-43.043"
           inkscape:connector-curvature="0"
           id="path66"
           style="fill:#f79110;fill-opacity:1;fill-rule:nonzero;stroke:none" /><path
           d="m 2170.49,552.598 -74.55,-43.039 74.55,-43.039 0,86.078"
           inkscape:connector-curvature="0"
           id="path68"
           style="fill:#f8a30d;fill-opacity:1;fill-rule:nonzero;stroke:none" /><path
           d="m 2170,635.211 0,-258.969 225.96,133.106 L 2170,635.211"
           inkscape:connector-curvature="0"
           id="path70"
           style="fill:#ffffff;fill-opacity:1;fill-rule:nonzero;stroke:none" /></g></g></g></g>
<g
   inkscape:groupmode="layer"
   id="layer1"
   inkscape:label="Guides"
   style="display:none"><rect
     style="fill:#0000ff;fill-rule:evenodd;stroke:#000000;stroke-width:0.50879931px;stroke-linecap:butt;stroke-linejoin:miter;stroke-opacity:1"
     id="rect4010"
     width="299.49094"
     height="299.49121"
     x="40.254402"
     y="740.25439" /><rect
     style="fill:#0000ff;fill-rule:evenodd;stroke:#000000;stroke-width:0.50879931px;stroke-linecap:butt;stroke-linejoin:miter;stroke-opacity:1"
     id="rect4010-3"
     width="299.49094"
     height="299.49121"
     x="377.44266"
     y="741.03162" /><rect
     style="fill:#0000ff;fill-rule:evenodd;stroke:#000000;stroke-width:0.50879931px;stroke-linecap:butt;stroke-linejoin:miter;stroke-opacity:1"
     id="rect4010-3-0"
     width="299.49094"
     height="299.49121"
     x="717.80402"
     y="741.03162" /><rect
     y="741.03162"
     x="717.80402"
     height="299.49121"
     width="299.49094"
     id="rect4059"
     style="fill:#0000ff;fill-rule:evenodd;stroke:#000000;stroke-width:0.50879931px;stroke-linecap:butt;stroke-linejoin:miter;stroke-opacity:1" /></g><g
   inkscape:groupmode="layer"
   id="layer2"
   inkscape:label="Logos"
   style="display:inline" /><g
   inkscape:groupmode="layer"
   id="layer3"
   inkscape:label="Text"
   style="display:inline"><g
   id="g5752"
   transform="matrix(1.2613293,0,0,1.2613293,413.39884,-102.5241)"><g
     id="g5187"
     transform="matrix(15.814032,0,0,15.814032,590.34145,202.17729)"
     style="fill:#ffbb00;fill-opacity:1"><g
       id="g5189"
       style="fill:#ffbb00;fill-opacity:1">
	<g
   id="g5191"
   style="fill:#ffbb00;fill-opacity:1">
		<path
   id="path5193"
   d="M 31.443,12.489 C 31.154,12.029 30.783,11.624 30.368,11.272 29.533,10.568 28.548,10.048 27.521,9.626 26.493,9.204 25.406,8.911 24.312,8.682 23.216,8.457 22.111,8.302 21.019,8.23 20.472,8.192 19.929,8.168 19.392,8.163 18.859,8.162 18.334,8.161 17.82,8.16 16.789,8.177 15.791,8.211 14.841,8.264 13.894,8.334 12.996,8.428 12.174,8.567 11.352,8.713 10.605,8.888 9.961,9.096 9.319,9.306 8.77,9.514 8.328,9.706 c -0.444,0.187 -0.787,0.35 -1.018,0.46 -0.231,0.113 -0.355,0.172 -0.355,0.172 0,0 0.527,-0.151 1.449,-0.418 0.461,-0.125 1.021,-0.272 1.668,-0.407 0.647,-0.128 1.379,-0.249 2.187,-0.315 0.806,-0.076 1.684,-0.118 2.617,-0.127 0.934,-0.018 1.92,-0.011 2.942,0.006 0.512,0.007 1.031,0.016 1.557,0.022 0.52,0.011 1.044,0.038 1.573,0.079 1.056,0.087 2.126,0.211 3.179,0.422 1.053,0.206 2.086,0.497 3.066,0.86 0.976,0.369 1.898,0.834 2.654,1.438 0.752,0.593 1.326,1.354 1.441,2.18 0.125,0.827 -0.168,1.64 -0.631,2.257 -0.463,0.625 -1.032,1.106 -1.562,1.486 -0.537,0.376 -1.037,0.667 -1.463,0.886 -0.424,0.221 -0.765,0.377 -1.001,0.479 -0.233,0.103 -0.362,0.148 -0.362,0.148 0,0 0.135,-0.027 0.383,-0.1 0.246,-0.073 0.609,-0.182 1.06,-0.36 0.448,-0.178 0.991,-0.408 1.577,-0.755 0.582,-0.348 1.232,-0.787 1.793,-1.454 0.277,-0.332 0.533,-0.723 0.704,-1.179 0.174,-0.454 0.254,-0.968 0.196,-1.495 -0.052,-0.525 -0.252,-1.044 -0.539,-1.502 z"
   inkscape:connector-curvature="0"
   style="fill:#ffbb00;fill-opacity:1" />
		<path
   id="path5195"
   d="m 1.528,18.491 c 0.692,0.603 1.521,1.062 2.396,1.438 0.878,0.383 1.81,0.666 2.763,0.911 0.953,0.249 1.938,0.429 2.925,0.562 0.989,0.125 1.981,0.207 2.958,0.234 0.977,0.028 1.938,0.01 2.864,-0.043 1.853,-0.104 3.564,-0.361 5.009,-0.658 1.447,-0.297 2.63,-0.638 3.445,-0.903 0.408,-0.129 0.725,-0.251 0.939,-0.331 0.215,-0.081 0.328,-0.13 0.328,-0.13 0,0 -0.485,0.073 -1.331,0.182 -0.849,0.104 -2.056,0.248 -3.5,0.359 -1.446,0.114 -3.134,0.209 -4.931,0.208 -0.899,0 -1.827,-0.025 -2.766,-0.075 C 11.689,20.185 10.739,20.103 9.796,19.976 8.852,19.857 7.916,19.691 7.006,19.488 6.777,19.441 6.552,19.384 6.329,19.326 L 5.993,19.243 5.832,19.202 5.662,19.155 C 5.43,19.093 5.227,19.029 5.015,18.962 4.803,18.897 4.594,18.825 4.389,18.751 3.575,18.451 2.814,18.1 2.198,17.65 1.577,17.207 1.113,16.666 0.889,16.073 0.659,15.481 0.665,14.851 0.781,14.307 c 0.12,-0.546 0.317,-1.017 0.508,-1.388 0.195,-0.37 0.372,-0.654 0.502,-0.842 0.129,-0.188 0.206,-0.285 0.206,-0.285 0,0 -0.098,0.074 -0.267,0.23 -0.167,0.16 -0.413,0.396 -0.679,0.743 -0.265,0.346 -0.571,0.793 -0.793,1.386 -0.222,0.584 -0.365,1.348 -0.16,2.162 0.196,0.814 0.738,1.587 1.43,2.178 z"
   inkscape:connector-curvature="0"
   style="fill:#ffbb00;fill-opacity:1" />
		<path
   id="path5197"
   d="m 28.133,19.631 c -0.549,0.257 -1.182,0.517 -1.873,0.787 -0.691,0.272 -1.455,0.525 -2.265,0.779 -0.81,0.252 -1.677,0.478 -2.578,0.672 -0.901,0.199 -1.84,0.367 -2.798,0.492 -0.956,0.131 -1.944,0.215 -2.912,0.256 -0.993,0.039 -1.968,0.043 -2.938,0.006 C 11.803,22.588 10.854,22.511 9.942,22.395 9.029,22.283 8.153,22.129 7.33,21.951 6.507,21.768 5.74,21.548 5.039,21.318 4.34,21.084 3.712,20.83 3.163,20.583 2.617,20.331 2.152,20.083 1.776,19.865 1.026,19.427 0.641,19.094 0.641,19.094 c 0,0 0.302,0.41 0.988,0.979 0.341,0.285 0.774,0.609 1.302,0.939 0.524,0.334 1.144,0.666 1.842,0.98 0.696,0.32 1.478,0.607 2.319,0.861 0.84,0.258 1.746,0.467 2.69,0.627 0.945,0.158 1.93,0.264 2.933,0.322 1,0.047 2.028,0.053 3.036,0 1.032,-0.047 2.04,-0.16 3.034,-0.318 0.99,-0.16 1.958,-0.371 2.879,-0.623 0.921,-0.252 1.795,-0.549 2.611,-0.856 0.815,-0.31 1.564,-0.657 2.25,-0.991 0.683,-0.334 1.285,-0.688 1.812,-1.004 0.528,-0.318 0.968,-0.629 1.326,-0.888 0.713,-0.521 1.079,-0.867 1.079,-0.867 0,0 -0.424,0.271 -1.197,0.679 -0.386,0.21 -0.863,0.439 -1.412,0.697 z"
   inkscape:connector-curvature="0"
   style="fill:#ffbb00;fill-opacity:1" />
		<path
   id="path5199"
   d="m 2.037,14.805 c 0.099,0.706 0.409,1.32 0.77,1.737 0.091,0.108 0.183,0.205 0.276,0.292 C 2.604,16.591 2.286,16.299 2.097,16.073 2.006,15.957 1.939,15.863 1.901,15.796 1.86,15.727 1.839,15.694 1.839,15.694 c 0,0 0.012,0.039 0.034,0.114 0.019,0.077 0.063,0.186 0.128,0.326 0.133,0.278 0.409,0.666 0.876,1.028 0.463,0.367 1.105,0.693 1.86,0.979 0.761,0.27 1.633,0.518 2.59,0.707 0.959,0.192 1.986,0.375 3.085,0.533 1.136,0.145 2.307,0.221 3.526,0.253 1.218,0.029 2.475,0.023 3.753,-0.032 1.275,-0.049 2.574,-0.164 3.869,-0.328 1.295,-0.174 2.592,-0.383 3.85,-0.744 0.629,-0.178 1.25,-0.385 1.854,-0.645 0.604,-0.262 1.19,-0.566 1.729,-0.984 0.269,-0.209 0.519,-0.45 0.733,-0.729 0.101,-0.118 0.239,-0.34 0.291,-0.443 0.094,-0.162 0.166,-0.34 0.217,-0.527 0.107,-0.374 0.1,-0.787 -0.004,-1.142 -0.103,-0.357 -0.276,-0.659 -0.474,-0.915 -0.396,-0.512 -0.866,-0.864 -1.331,-1.16 -0.467,-0.293 -0.938,-0.523 -1.395,-0.719 -0.916,-0.393 -1.793,-0.618 -2.573,-0.779 -0.491,-0.101 -0.942,-0.159 -1.354,-0.194 l 0,0 c -0.123,-0.119 -0.26,-0.214 -0.414,-0.279 -0.569,-0.241 -1.268,-0.039 -1.942,0.383 0.012,-0.008 0.022,-0.017 0.037,-0.023 -0.095,0.02 -0.144,0.032 -0.144,0.032 0,0 0.035,-0.003 0.102,-0.005 -0.512,0.318 -1.01,0.761 -1.434,1.234 0.002,-0.005 0.006,-0.009 0.01,-0.013 -0.299,-0.02 -0.601,-0.038 -0.9,-0.05 -0.932,-0.038 -1.874,-0.041 -2.818,-0.002 -0.497,0.02 -0.994,0.048 -1.488,0.089 0,10e-4 10e-4,0.002 10e-4,0.003 -0.172,-0.293 -0.362,-0.56 -0.567,-0.786 0.005,0.005 0.01,0.011 0.015,0.017 0.217,-0.036 0.429,-0.07 0.632,-0.099 0.415,-0.056 0.796,-0.123 1.135,-0.164 0.339,-0.041 0.636,-0.088 0.88,-0.112 0.245,-0.025 0.438,-0.052 0.57,-0.06 0.133,-0.009 0.203,-0.014 0.203,-0.014 0,0 -0.274,-0.082 -0.771,-0.149 -0.247,-0.03 -0.548,-0.071 -0.895,-0.095 -0.347,-0.022 -0.738,-0.053 -1.165,-0.055 -0.427,-0.004 -0.891,-0.01 -1.381,0.013 -0.104,0.004 -0.213,0.012 -0.318,0.018 0.018,0.003 0.035,0.009 0.053,0.014 -0.101,-0.025 -0.204,-0.043 -0.309,-0.043 -0.15,0 -0.297,0.027 -0.44,0.076 -0.175,0.015 -0.349,0.028 -0.527,0.048 -0.535,0.06 -1.086,0.144 -1.645,0.256 -0.559,0.115 -1.126,0.255 -1.685,0.45 -0.56,0.192 -1.116,0.427 -1.638,0.761 -0.13,0.086 -0.257,0.165 -0.392,0.279 -0.063,0.052 -0.139,0.108 -0.19,0.157 L 5.529,12.314 5.493,12.35 5.454,12.388 5.435,12.41 5.358,12.496 c -0.05,0.06 -0.104,0.113 -0.149,0.175 -0.093,0.124 -0.185,0.247 -0.263,0.38 -0.33,0.521 -0.5,1.136 -0.496,1.706 -0.002,0.286 0.043,0.56 0.113,0.812 0.068,0.252 0.166,0.484 0.282,0.689 0.229,0.413 0.506,0.74 0.795,0.976 0.245,0.211 0.491,0.354 0.715,0.445 C 5.85,17.615 5.373,17.539 4.941,17.443 4.58,17.37 4.25,17.283 3.948,17.185 3.756,16.964 3.505,16.638 3.298,16.218 3.093,15.792 2.938,15.28 2.917,14.717 2.905,14.436 2.921,14.144 2.967,13.848 2.977,13.774 2.991,13.699 3.005,13.623 L 3.026,13.526 3.057,13.404 3.087,13.28 3.119,13.179 C 3.14,13.114 3.157,13.048 3.188,12.977 3.293,12.698 3.427,12.429 3.591,12.179 3.754,11.929 3.942,11.695 4.144,11.482 4.547,11.056 4.998,10.704 5.408,10.431 5.616,10.298 5.807,10.169 5.985,10.07 6.162,9.97 6.317,9.875 6.45,9.81 6.712,9.67 6.869,9.597 6.869,9.597 c 0,0 -0.174,0 -0.475,0.045 C 6.245,9.668 6.061,9.696 5.856,9.752 5.651,9.808 5.417,9.87 5.172,9.97 4.927,10.067 4.66,10.18 4.393,10.331 4.124,10.481 3.852,10.664 3.588,10.885 3.324,11.102 3.071,11.361 2.85,11.656 2.629,11.95 2.438,12.281 2.3,12.634 2.263,12.719 2.233,12.817 2.202,12.911 l -0.044,0.141 -0.03,0.123 -0.03,0.123 -0.017,0.082 -0.013,0.068 c -0.015,0.09 -0.03,0.181 -0.041,0.272 -0.043,0.363 -0.042,0.733 0.01,1.085 z m 11.924,3.442 c -1.186,-0.013 -2.342,-0.035 -3.398,-0.14 -0.153,-0.017 -0.304,-0.03 -0.456,-0.045 0.068,0 0.107,-0.002 0.107,-0.002 0,0 -0.117,-0.018 -0.332,-0.056 C 9.67,17.964 9.354,17.901 8.976,17.771 8.599,17.64 8.146,17.443 7.741,17.095 7.54,16.923 7.352,16.713 7.221,16.463 7.091,16.215 7.022,15.929 7.046,15.638 7.083,15.052 7.51,14.481 8.115,14.086 8.526,13.815 9.008,13.602 9.529,13.442 v -10e-4 c -0.152,0.54 -0.237,1.056 -0.237,1.466 0,1.602 1.302,2.902 2.902,2.902 0.569,0 1.1,-0.168 1.548,-0.453 l 0,0 c 0.11,0.326 0.275,0.627 0.486,0.89 -0.088,0 -0.178,0.001 -0.267,0.001 z m 11.103,-1.019 c -1.188,0.285 -2.424,0.502 -3.676,0.646 -0.841,0.103 -1.684,0.168 -2.521,0.226 0.271,-0.389 0.451,-0.842 0.508,-1.334 0.121,0.073 0.247,0.143 0.381,0.199 1.452,0.61 3.131,-0.07 3.743,-1.522 0.222,-0.523 0.371,-1.3 0.401,-2.108 0,0 0,0 0,10e-4 0.586,0.154 1.137,0.325 1.621,0.539 0.603,0.27 1.127,0.601 1.365,1.022 0.116,0.208 0.153,0.433 0.135,0.648 -0.023,0.217 -0.102,0.419 -0.189,0.591 -0.174,0.326 -0.367,0.564 -0.508,0.728 -0.408,0.136 -0.829,0.257 -1.26,0.364 z m -0.735,-6.245 c 0.733,0.229 1.54,0.556 2.366,0.984 0.412,0.218 0.826,0.467 1.216,0.761 0.386,0.293 0.755,0.634 1.015,1.014 0.127,0.189 0.221,0.39 0.262,0.581 0.037,0.192 0.029,0.373 -0.035,0.553 -0.029,0.091 -0.073,0.183 -0.135,0.271 l -0.057,0.092 c -0.018,0.026 -0.031,0.041 -0.047,0.062 l -0.044,0.059 -0.06,0.067 c -0.154,0.18 -0.35,0.343 -0.561,0.499 -0.424,0.31 -0.938,0.561 -1.479,0.771 -0.08,0.032 -0.164,0.062 -0.248,0.092 0.148,-0.128 0.326,-0.294 0.502,-0.53 0.127,-0.171 0.252,-0.384 0.326,-0.65 0.076,-0.266 0.063,-0.596 -0.061,-0.903 -0.257,-0.622 -0.836,-1.077 -1.467,-1.436 -0.583,-0.331 -1.24,-0.604 -1.945,-0.834 -0.052,-0.639 -0.191,-1.244 -0.447,-1.702 0.288,0.071 0.586,0.153 0.899,0.249 z m -5.72,2.572 c 0.019,-0.052 0.035,-0.104 0.057,-0.153 0.525,-1.247 2.682,-3.449 3.841,-2.959 1.159,0.49 1.086,3.569 0.56,4.817 -0.512,1.212 -1.916,1.783 -3.129,1.271 -0.203,-0.086 -0.387,-0.199 -0.551,-0.33 -0.052,-0.754 -0.334,-1.769 -0.778,-2.646 0,-10e-4 0,0 0,0 z m -0.488,-0.813 c 0.086,10e-4 0.174,0 0.26,0.002 0.032,0 0.062,0.002 0.096,0.002 0.002,-0.003 0.004,-0.007 0.006,-0.01 -0.061,0.104 -0.113,0.203 -0.164,0.3 -0.062,-0.103 -0.131,-0.202 -0.197,-0.297 -0.003,10e-4 -0.002,0.002 -0.001,0.003 z m -1.629,-0.596 c 1.277,0 2.426,2.912 2.426,4.287 0,0.666 -0.27,1.266 -0.702,1.705 -0.196,0.012 -0.396,0.021 -0.591,0.033 -0.927,0.043 -1.844,0.066 -2.742,0.072 -0.5,-0.441 -0.818,-1.091 -0.818,-1.811 0.001,-1.372 1.149,-4.286 2.427,-4.286 z m -1.846,0.644 c 0.063,-0.003 0.125,-0.004 0.187,-0.007 -0.042,0.06 -0.083,0.12 -0.124,0.183 -0.022,-0.065 -0.047,-0.132 -0.072,-0.196 0.004,0.008 0.007,0.015 0.009,0.02 z m -2.451,-2.169 c 0.93,0 1.791,1.542 2.19,2.911 0,0 0,0 0,-10e-4 -0.496,0.977 -0.795,2.129 -0.795,2.904 0,0.146 0.014,0.289 0.035,0.428 -0.402,0.294 -0.895,0.471 -1.43,0.471 -1.338,0 -2.426,-1.088 -2.426,-2.426 0,-1.375 1.148,-4.287 2.426,-4.287 z M 6.009,16.884 C 5.826,16.623 5.647,16.312 5.534,15.952 5.421,15.594 5.368,15.197 5.416,14.802 5.469,14.407 5.62,14.018 5.879,13.662 5.941,13.572 6.015,13.487 6.089,13.401 6.125,13.357 6.168,13.318 6.208,13.276 L 6.268,13.214 6.275,13.205 6.281,13.2 6.319,13.166 6.471,13.03 c 0.05,-0.043 0.088,-0.062 0.132,-0.097 0.077,-0.06 0.186,-0.125 0.287,-0.191 0.415,-0.258 0.904,-0.462 1.402,-0.646 0.503,-0.178 1.022,-0.333 1.544,-0.465 0.179,-0.047 0.358,-0.088 0.537,-0.13 -0.172,0.273 -0.327,0.571 -0.462,0.88 -0.824,0.234 -1.612,0.564 -2.258,1.077 -0.342,0.273 -0.644,0.596 -0.862,0.967 -0.218,0.368 -0.342,0.793 -0.333,1.203 0.01,0.411 0.152,0.788 0.351,1.085 0.2,0.298 0.451,0.519 0.7,0.689 0.48,0.315 0.953,0.456 1.345,0.543 C 8.382,17.903 7.924,17.862 7.489,17.815 7.365,17.799 7.247,17.786 7.126,17.772 7.105,17.766 7.084,17.76 7.061,17.751 6.94,17.71 6.769,17.626 6.583,17.485 6.399,17.341 6.195,17.144 6.009,16.884 z"
   inkscape:connector-curvature="0"
   style="fill:#ffbb00;fill-opacity:1" />
	</g>
</g><g
       id="g5201"
       style="fill:#ffbb00;fill-opacity:1">
</g><g
       id="g5203"
       style="fill:#ffbb00;fill-opacity:1">
</g><g
       id="g5205"
       style="fill:#ffbb00;fill-opacity:1">
</g><g
       id="g5207"
       style="fill:#ffbb00;fill-opacity:1">
</g><g
       id="g5209"
       style="fill:#ffbb00;fill-opacity:1">
</g><g
       id="g5211"
       style="fill:#ffbb00;fill-opacity:1">
</g><g
       id="g5213"
       style="fill:#ffbb00;fill-opacity:1">
</g><g
       id="g5215"
       style="fill:#ffbb00;fill-opacity:1">
</g><g
       id="g5217"
       style="fill:#ffbb00;fill-opacity:1">
</g><g
       id="g5219"
       style="fill:#ffbb00;fill-opacity:1">
</g><g
       id="g5221"
       style="fill:#ffbb00;fill-opacity:1">
</g><g
       id="g5223"
       style="fill:#ffbb00;fill-opacity:1">
</g><g
       id="g5225"
       style="fill:#ffbb00;fill-opacity:1">
</g><g
       id="g5227"
       style="fill:#ffbb00;fill-opacity:1">
</g><g
       id="g5229"
       style="fill:#ffbb00;fill-opacity:1">
</g></g><path
     sodipodi:nodetypes="scccccsscccsccsccccss"
     inkscape:connector-curvature="0"
     id="rect5140"
     d="m 939.75,366.21875 c -18.95545,0.77811 -46.82445,30.34304 -54.21875,47.90625 -0.34791,0.77489 -0.60578,1.58392 -0.90625,2.40625 7.02143,13.86891 11.49017,29.91997 12.3125,41.84375 2.5935,2.07164 5.5085,3.85874 8.71875,5.21875 19.18242,8.09678 41.37197,-0.92714 49.46875,-20.09375 8.31818,-19.73591 9.48471,-68.43862 -8.84375,-76.1875 -2.00468,-0.84753 -4.20339,-1.18931 -6.53125,-1.09375 z m -156.5625,3.00705 c -43.50036,5.21148 -60.96114,118.70674 0.17984,107.9859 8.46051,0 16.08792,-3.71862 22.44516,-8.36795 -0.33209,-2.19815 -0.5625,-4.44115 -0.5625,-6.75 0,-12.24925 4.72635,-30.46131 12.5625,-45.90625 -6.3098,-21.64941 -19.91795,-46.9617 -34.625,-46.9617 z m 67.96875,25.0242 c -20.21033,0 -38.35919,46.0844 -38.375,67.78125 0,11.3861 4.99923,21.68226 12.90625,28.65625 14.201,-0.0949 28.71539,-0.47625 43.375,-1.15625 3.08374,-0.18977 6.2442,-0.34148 9.34375,-0.53125 C 885.23791,482.05764 889.5,472.59465 889.5,462.0625 889.5,440.31821 871.35077,394.25 851.15625,394.25 z"
     style="fill:#ffffff;fill-opacity:1;fill-rule:evenodd;stroke:none" /></g><text
   xml:space="preserve"
   style="font-size:200px;font-style:normal;font-variant:normal;font-weight:normal;font-stretch:normal;line-height:125%;letter-spacing:0px;word-spacing:0px;fill:#ffffff;fill-opacity:1;stroke:none;font-family:ChunkFive Ex;-inkscape-font-specification:ChunkFive Ex"
   x="100"
   y="391.42844"
   id="text3929-0"
   sodipodi:linespacing="125%"
   inkscape:export-filename="C:\Users\samkristoff\Desktop\Icons\Thumbnail\Sparkfun Inventor's Kit for LabVIEW\13 - DC Motor.png"
   inkscape:export-xdpi="90"
   inkscape:export-ydpi="90"><tspan
     sodipodi:role="line"
     x="100"
     y="391.42844"
     style="font-size:150px;font-style:normal;font-variant:normal;font-weight:bold;font-stretch:normal;line-height:125%;fill:#ffffff;fill-opacity:1;font-family:Segoe UI;-inkscape-font-specification:Segoe UI Bold"
     id="tspan3034" /><tspan
     sodipodi:role="line"
     x="100"
     y="600.19897"
     style="font-size:175px;font-style:normal;font-variant:normal;font-weight:bold;font-stretch:normal;line-height:125%;fill:#ffffff;fill-opacity:1;font-family:Segoe UI;-inkscape-font-specification:Segoe UI Bold"
     id="tspan3136">Nest</tspan><tspan
     sodipodi:role="line"
     x="100"
     y="818.94897"
     style="font-size:150px;font-style:normal;font-variant:normal;font-weight:bold;font-stretch:normal;line-height:125%;fill:#ffffff;fill-opacity:1;font-family:Segoe UI;-inkscape-font-specification:Segoe UI Bold"
     id="tspan3966-8" /></text>









<g
   id="g3056"
   transform="matrix(2.1118276,0,0,2.1118276,1228.7297,168.07311)">
</g><g
   id="g3058"
   transform="matrix(2.1118276,0,0,2.1118276,1228.7297,168.07311)">
</g><g
   id="g3060"
   transform="matrix(2.1118276,0,0,2.1118276,1228.7297,168.07311)">
</g><g
   id="g3062"
   transform="matrix(2.1118276,0,0,2.1118276,1228.7297,168.07311)">
</g><g
   id="g3064"
   transform="matrix(2.1118276,0,0,2.1118276,1228.7297,168.07311)">
</g><g
   id="g3066"
   transform="matrix(2.1118276,0,0,2.1118276,1228.7297,168.07311)">
</g><g
   id="g3068"
   transform="matrix(2.1118276,0,0,2.1118276,1228.7297,168.07311)">
</g><g
   id="g3070"
   transform="matrix(2.1118276,0,0,2.1118276,1228.7297,168.07311)">
</g><g
   id="g3072"
   transform="matrix(2.1118276,0,0,2.1118276,1228.7297,168.07311)">
</g><g
   id="g3074"
   transform="matrix(2.1118276,0,0,2.1118276,1228.7297,168.07311)">
</g><g
   id="g3076"
   transform="matrix(2.1118276,0,0,2.1118276,1228.7297,168.07311)">
</g><g
   id="g3078"
   transform="matrix(2.1118276,0,0,2.1118276,1228.7297,168.07311)">
</g><g
   id="g3080"
   transform="matrix(2.1118276,0,0,2.1118276,1228.7297,168.07311)">
</g><g
   id="g3082"
   transform="matrix(2.1118276,0,0,2.1118276,1228.7297,168.07311)">
</g><g
   id="g3084"
   transform="matrix(2.1118276,0,0,2.1118276,1228.7297,168.07311)">
</g></g><g
   inkscape:groupmode="layer"
   id="layer4"
   inkscape:label="Kinect One" /></svg>