<?xml version="1.0" encoding="UTF-8" standalone="no"?>
<!-- Created with Inkscape (http://www.inkscape.org/) -->

<svg
   xmlns:dc="http://purl.org/dc/elements/1.1/"
   xmlns:cc="http://creativecommons.org/ns#"
   xmlns:rdf="http://www.w3.org/1999/02/22-rdf-syntax-ns#"
   xmlns:svg="http://www.w3.org/2000/svg"
   xmlns="http://www.w3.org/2000/svg"
   xmlns:sodipodi="http://sodipodi.sourceforge.net/DTD/sodipodi-0.dtd"
   xmlns:inkscape="http://www.inkscape.org/namespaces/inkscape"
   width="27"
   height="27"
   id="svg2"
   version="1.1"
   inkscape:version="0.48.4 r9939"
   sodipodi:docname="forum_unread.svg"
   inkscape:export-filename="C:\github\makerhub\Website\Media\Images\Forums\Icons\export\forum_unread.png"
   inkscape:export-xdpi="90"
   inkscape:export-ydpi="90">
  <defs
     id="defs4" />
  <sodipodi:namedview
     id="base"
     pagecolor="#ffffff"
     bordercolor="#666666"
     borderopacity="1.0"
     inkscape:pageopacity="0.0"
     inkscape:pageshadow="2"
     inkscape:zoom="22.4"
     inkscape:cx="13.021736"
     inkscape:cy="12.182497"
     inkscape:document-units="px"
     inkscape:current-layer="layer1"
     showgrid="false"
     inkscape:window-width="1920"
     inkscape:window-height="1017"
     inkscape:window-x="1912"
     inkscape:window-y="-8"
     inkscape:window-maximized="1" />
  <metadata
     id="metadata7">
    <rdf:RDF>
      <cc:Work
         rdf:about="">
        <dc:format>image/svg+xml</dc:format>
        <dc:type
           rdf:resource="http://purl.org/dc/dcmitype/StillImage" />
        <dc:title></dc:title>
      </cc:Work>
    </rdf:RDF>
  </metadata>
  <g
     inkscape:label="Layer 1"
     inkscape:groupmode="layer"
     id="layer1"
     transform="translate(0,-1025.3622)">
    <g
       id="g3817"
       transform="matrix(0.97387921,0,0,0.97387921,0.39551317,26.960813)">
      <path
         transform="matrix(0.11993403,0,0,0.11993403,-17.236237,988.68261)"
         d="m 365.71428,419.50504 c 0,60.75132 -49.24868,110 -110,110 -60.75132,0 -110,-49.24868 -110,-110 0,-60.75133 49.24868,-110 110,-110 60.75132,0 110,49.24867 110,110 z"
         sodipodi:ry="110"
         sodipodi:rx="110"
         sodipodi:cy="419.50504"
         sodipodi:cx="255.71428"
         id="path2987"
         style="opacity:0.95;fill:#828282;fill-opacity:1;fill-rule:nonzero;stroke:#ffbb00;stroke-width:8.00440025;stroke-linejoin:round;stroke-miterlimit:4;stroke-opacity:1;stroke-dasharray:none"
         sodipodi:type="arc" />
      <g
         style="fill:#ffffff"
         transform="matrix(0.02825431,0,0,0.02825431,4.7867873,1030.3497)"
         id="g3798">
        <g
           style="fill:#ffffff"
           id="g3758">
	<path
   style="fill:#ffffff"
   inkscape:connector-curvature="0"
   d="m 306.768,346.814 h 0.131 c 4.615,0 9.176,-1.339 12.866,-3.777 l 1.001,-0.643 c 0.218,-0.142 0.446,-0.271 0.675,-0.424 l 11.658,-9.645 278.259,-229.624 c -0.576,-0.795 -1.557,-1.339 -2.602,-1.339 H 3.233 c -0.751,0 -1.448,0.272 -2.003,0.729 l 291.125,239.954 c 3.669,3.038 8.904,4.769 14.413,4.769 z M 0,133.899 v 340.37 L 208.55,305.798 0,133.899 z M 403.668,306.941 612,474.356 V 135.031 l -208.332,171.91 z m -66.237,54.644 c -8.305,6.814 -19.168,10.57 -30.576,10.57 -11.451,0 -22.304,-3.734 -30.587,-10.516 L 228.503,322.245 0,506.806 v 0.587 c 0,1.753 1.502,3.244 3.276,3.244 h 605.491 c 1.741,0 3.232,-1.491 3.232,-3.255 v -0.544 L 383.693,323.4 337.431,361.585 z"
   id="path3760" />

</g>
        <g
           style="fill:#ffffff"
           id="g3762">
</g>
        <g
           style="fill:#ffffff"
           id="g3764">
</g>
        <g
           style="fill:#ffffff"
           id="g3766">
</g>
        <g
           style="fill:#ffffff"
           id="g3768">
</g>
        <g
           style="fill:#ffffff"
           id="g3770">
</g>
        <g
           style="fill:#ffffff"
           id="g3772">
</g>
        <g
           style="fill:#ffffff"
           id="g3774">
</g>
        <g
           style="fill:#ffffff"
           id="g3776">
</g>
        <g
           style="fill:#ffffff"
           id="g3778">
</g>
        <g
           style="fill:#ffffff"
           id="g3780">
</g>
        <g
           style="fill:#ffffff"
           id="g3782">
</g>
        <g
           style="fill:#ffffff"
           id="g3784">
</g>
        <g
           style="fill:#ffffff"
           id="g3786">
</g>
        <g
           style="fill:#ffffff"
           id="g3788">
</g>
        <g
           style="fill:#ffffff"
           id="g3790">
</g>
      </g>
    </g>
  </g>
</svg>
