<?xml version="1.0" encoding="UTF-8" standalone="no"?>
<!-- Created with Inkscape (http://www.inkscape.org/) -->

<svg
   xmlns:dc="http://purl.org/dc/elements/1.1/"
   xmlns:cc="http://creativecommons.org/ns#"
   xmlns:rdf="http://www.w3.org/1999/02/22-rdf-syntax-ns#"
   xmlns:svg="http://www.w3.org/2000/svg"
   xmlns="http://www.w3.org/2000/svg"
   xmlns:sodipodi="http://sodipodi.sourceforge.net/DTD/sodipodi-0.dtd"
   xmlns:inkscape="http://www.inkscape.org/namespaces/inkscape"
   version="1.1"
   width="1920"
   height="1080"
   id="svg2"
   xml:space="preserve"
   inkscape:version="0.91 r13725"
   sodipodi:docname="Digilent Physical Computing Kit - 05 - Push Button.svg"
   inkscape:export-filename="C:\github\makerhub\Website\Media\Images\Tutorials\Digilent Physical Computing Kit\export\Digilent Physical Computing Kit for LabVIEW - 05 - Push Button 460.png"
   inkscape:export-xdpi="21.5625"
   inkscape:export-ydpi="21.5625"><sodipodi:namedview
     pagecolor="#919191"
     bordercolor="#666666"
     borderopacity="1"
     objecttolerance="10"
     gridtolerance="10"
     guidetolerance="10"
     inkscape:pageopacity="1"
     inkscape:pageshadow="2"
     inkscape:window-width="1920"
     inkscape:window-height="1017"
     id="namedview3019"
     showgrid="false"
     inkscape:zoom="0.49148422"
     inkscape:cx="1018.0537"
     inkscape:cy="499.1198"
     inkscape:window-x="1912"
     inkscape:window-y="-8"
     inkscape:window-maximized="1"
     inkscape:current-layer="layer3"
     showguides="true"
     inkscape:guide-bbox="true"><sodipodi:guide
       orientation="1,0"
       position="1017.3267,1098.7128"
       id="guide3029" /><sodipodi:guide
       orientation="1,0"
       position="100,488.3168"
       id="guide4310" /><sodipodi:guide
       position="921.69795,540"
       orientation="0,1"
       id="guide4297"
       inkscape:label=""
       inkscape:color="rgb(0,0,255)" /><sodipodi:guide
       position="840.31182,740"
       orientation="0,1"
       id="guide4299"
       inkscape:label=""
       inkscape:color="rgb(0,0,255)" /><sodipodi:guide
       position="649.05441,340"
       orientation="0,1"
       id="guide4301"
       inkscape:label=""
       inkscape:color="rgb(0,0,255)" /><sodipodi:guide
       position="1440,834.20786"
       orientation="1,0"
       id="guide4303"
       inkscape:label=""
       inkscape:color="rgb(0,0,255)" /></sodipodi:namedview><metadata
     id="metadata8"><rdf:RDF><cc:Work
         rdf:about=""><dc:format>image/svg+xml</dc:format><dc:type
           rdf:resource="http://purl.org/dc/dcmitype/StillImage" /><dc:title></dc:title></cc:Work></rdf:RDF></metadata><defs
     id="defs6"><linearGradient
       id="linearGradient4153"><stop
         style="stop-color:#828282;stop-opacity:1;"
         offset="0"
         id="stop4155" /><stop
         style="stop-color:#919191;stop-opacity:1;"
         offset="1"
         id="stop4157" /></linearGradient><clipPath
       id="clipPath18"><path
         d="M 0,734.812 0,0 l 2465.98,0 0,734.812 -2465.98,0 z"
         inkscape:connector-curvature="0"
         id="path20" /></clipPath></defs><g
     id="g3899"
     transform="matrix(3.2707529,0,0,-3.2707529,1058.7202,1033.0507)"><g
       transform="scale(0.1,0.1)"
       id="g12"><g
         id="g14"><g
           clip-path="url(#clipPath18)"
           id="g16"><path
             d="m 0,393.57 0,184.832 17.457,0 0,-169.945 99.09,0 0,-14.887 -116.547,0"
             inkscape:connector-curvature="0"
             id="path22"
             style="fill:#fab40a;fill-opacity:1;fill-rule:nonzero;stroke:none" /><path
             d="m 222.309,463.395 c -6.504,-2.743 -13.09,-4.54 -19.766,-5.391 -6.676,-0.856 -13.348,-1.539 -20.023,-2.051 -11.805,-0.859 -21.012,-3.512 -27.598,-7.961 -6.586,-4.453 -9.883,-11.211 -9.883,-20.281 0,-4.109 0.813,-7.66 2.441,-10.652 1.622,-2.997 3.758,-5.481 6.415,-7.446 2.652,-1.968 5.734,-3.425 9.246,-4.363 3.504,-0.941 7.058,-1.41 10.652,-1.41 6.156,0 12.148,0.769 17.969,2.308 5.816,1.543 10.996,3.891 15.535,7.059 4.527,3.164 8.168,7.188 10.906,12.066 2.735,4.879 4.106,10.657 4.106,17.329 l 0,20.793 z m -25.926,7.703 c 2.91,0.336 6.375,0.855 10.398,1.539 4.02,0.683 7.317,1.625 9.883,2.824 2.566,1.195 4.148,3.211 4.746,6.031 0.602,2.824 0.899,5.434 0.899,7.828 0,7.871 -2.524,14.336 -7.575,19.387 -5.046,5.043 -13.562,7.57 -25.539,7.57 -5.308,0 -10.187,-0.472 -14.633,-1.41 -4.449,-0.941 -8.339,-2.566 -11.679,-4.879 -3.336,-2.308 -6.074,-5.386 -8.215,-9.242 -2.145,-3.851 -3.555,-8.687 -4.238,-14.5 l -15.66,0 c 0.511,7.863 2.308,14.582 5.39,20.149 3.082,5.558 7.063,10.093 11.942,13.605 4.875,3.508 10.527,6.074 16.941,7.699 6.418,1.625 13.223,2.442 20.41,2.442 6.676,0 12.965,-0.731 18.867,-2.18 5.903,-1.457 11.039,-3.766 15.403,-6.938 4.363,-3.168 7.785,-7.402 10.265,-12.703 2.481,-5.308 3.727,-11.804 3.727,-19.511 l 0,-72.395 c 0,-5.988 1.062,-9.797 3.207,-11.418 2.14,-1.633 6.461,-1.246 12.965,1.152 l 0,-12.066 c -1.199,-0.344 -2.953,-0.855 -5.266,-1.539 -2.309,-0.684 -4.578,-1.027 -6.801,-1.027 -2.394,0 -4.707,0.257 -6.933,0.769 -2.563,0.348 -4.617,1.156 -6.157,2.442 -1.542,1.281 -2.785,2.824 -3.726,4.621 -0.942,1.797 -1.582,3.757 -1.922,5.902 -0.348,2.137 -0.516,4.402 -0.516,6.801 -6.507,-7.188 -13.949,-12.664 -22.332,-16.426 -8.386,-3.766 -17.457,-5.648 -27.211,-5.648 -5.82,0 -11.425,0.769 -16.816,2.308 -5.391,1.543 -10.137,3.938 -14.25,7.188 -4.105,3.254 -7.355,7.23 -9.754,11.937 -2.398,4.707 -3.594,10.309 -3.594,16.817 0,22.589 15.489,35.937 46.469,40.043 l 21.305,2.828"
             inkscape:connector-curvature="0"
             id="path24"
             style="fill:#fab40a;fill-opacity:1;fill-rule:nonzero;stroke:none" /><path
             d="m 290.082,460.57 c 0,-8.047 0.98,-15.531 2.953,-22.461 1.965,-6.933 4.832,-12.925 8.602,-17.968 3.758,-5.051 8.468,-9.032 14.117,-11.938 5.648,-2.914 12.062,-4.363 19.258,-4.363 6.496,0 12.488,1.156 17.968,3.465 5.473,2.308 10.266,5.687 14.375,10.136 4.106,4.45 7.313,9.887 9.625,16.305 2.313,6.414 3.465,13.816 3.465,22.207 0.34,8.383 -0.343,16.211 -2.05,23.485 -1.715,7.277 -4.454,13.648 -8.219,19.124 -3.766,5.477 -8.598,9.797 -14.5,12.965 -5.906,3.164 -12.801,4.75 -20.664,4.75 -7.024,0 -13.313,-1.496 -18.875,-4.492 -5.563,-2.996 -10.27,-7.019 -14.117,-12.062 -3.852,-5.055 -6.805,-10.957 -8.856,-17.715 -2.055,-6.766 -3.082,-13.906 -3.082,-21.438 z m 0,-67 -15.402,0 0,184.832 15.402,0 0,-73.164 c 4.961,8.215 11.766,14.418 20.41,18.614 8.641,4.191 17.668,6.289 27.082,6.289 10.098,0 18.871,-1.922 26.313,-5.778 7.445,-3.851 13.609,-8.98 18.484,-15.402 4.879,-6.418 8.512,-13.906 10.91,-22.461 2.395,-8.562 3.594,-17.457 3.594,-26.699 0,-9.758 -1.113,-18.91 -3.336,-27.465 -2.227,-8.563 -5.773,-15.965 -10.652,-22.207 -4.879,-6.25 -11.086,-11.168 -18.614,-14.762 -7.535,-3.594 -16.683,-5.39 -27.464,-5.39 -4.286,0 -8.649,0.597 -13.098,1.796 -4.453,1.2 -8.77,2.911 -12.965,5.129 -4.191,2.231 -8.047,5.012 -11.551,8.348 -3.507,3.34 -6.379,7.227 -8.597,11.68 l -0.516,0 0,-23.36"
             inkscape:connector-curvature="0"
             id="path26"
             style="fill:#fab40a;fill-opacity:1;fill-rule:nonzero;stroke:none" /><path
             d="m 410.738,578.402 18.227,0 55.707,-164.297 55.449,164.297 18.231,0 -64.18,-184.832 -19.254,0 -64.18,184.832"
             inkscape:connector-curvature="0"
             id="path28"
             style="fill:#fab40a;fill-opacity:1;fill-rule:nonzero;stroke:none" /><path
             d="m 584.785,393.57 17.457,0 0,184.832 -17.457,0 0,-184.832 z"
             inkscape:connector-curvature="0"
             id="path30"
             style="fill:#fab40a;fill-opacity:1;fill-rule:nonzero;stroke:none" /><path
             d="m 644.859,393.57 0,184.832 122.961,0 0,-14.886 -105.508,0 0,-66.746 95.243,0 0,-14.891 -95.243,0 0,-73.422 108.079,0 0,-14.887 -125.532,0"
             inkscape:connector-curvature="0"
             id="path32"
             style="fill:#fab40a;fill-opacity:1;fill-rule:nonzero;stroke:none" /><path
             d="m 941.617,418.215 0.516,0 40.305,160.187 17.972,0 -48.523,-184.832 -19.254,0 -42.871,163.27 -0.516,0 -42.867,-163.27 -19.254,0 -47.75,184.832 17.457,0 39.789,-160.187 0.512,0 42.871,160.187 19.512,0 42.101,-160.187"
             inkscape:connector-curvature="0"
             id="path34"
             style="fill:#fab40a;fill-opacity:1;fill-rule:nonzero;stroke:none" /><path
             d="m 239.762,347.234 101.843,0 0,-338.72619 -65.953,0 0,229.10919 c 0,6.586 0.075,15.817 0.231,27.692 0.152,11.871 0.23,21.031 0.23,27.461 L 211.926,8.50781 l -68.797,0 L 79.3984,292.77 c 0,-6.43 0.0743,-15.59 0.2305,-27.461 0.1523,-11.875 0.2305,-21.106 0.2305,-27.692 l 0,-229.10919 -65.9532,0 0,338.72619 102.9918,0 61.661,-266.3434 61.203,266.3434"
             inkscape:connector-curvature="0"
             id="path36"
             style="fill:#ffffff;fill-opacity:1;fill-rule:nonzero;stroke:none" /><path
             d="m 531.664,130.305 c -4.191,-2.621 -8.426,-4.719 -12.699,-6.328 -4.274,-1.606 -10.133,-3.11 -17.582,-4.473 l -14.914,-2.766 c -13.973,-2.453 -24.008,-5.437 -30.102,-8.957 -10.316,-5.972 -15.472,-15.2537 -15.472,-27.8083 0,-11.1954 3.148,-19.2696 9.453,-24.2422 6.293,-4.9766 13.961,-7.4766 22.98,-7.4766 14.313,0 27.496,4.1406 39.555,12.4219 12.055,8.2578 18.312,23.3554 18.781,45.2622 l 0,24.367 z m -40.047,30.562 c 12.192,1.528 20.906,3.442 26.156,5.742 9.415,3.989 14.122,10.176 14.122,18.618 0,10.25 -3.61,17.339 -10.833,21.25 -7.218,3.906 -17.82,5.859 -31.792,5.859 -15.684,0 -26.793,-3.828 -33.313,-11.484 -4.664,-5.668 -7.769,-13.332 -9.316,-22.993 l -63.2,0 c 1.383,21.914 7.539,39.914 18.461,54.004 17.391,22.071 47.239,33.102 89.559,33.102 27.539,0 52,-5.438 73.394,-16.317 21.383,-10.882 32.079,-31.414 32.079,-61.589 l 0,-114.9028 c 0,-7.9687 0.152,-17.6132 0.461,-28.9531 0.457,-8.5859 1.753,-14.4023 3.906,-17.4726 2.14,-3.0625 5.359,-5.586 9.652,-7.5782 l 0,-9.64449 -71.242,0 c -1.992,5.04689 -3.371,9.80079 -4.137,14.23439 -0.769,4.4531 -1.379,9.5039 -1.84,15.1797 C 524.645,28.1133 514.16,19.7578 502.301,12.8594 488.121,4.75781 472.094,0.691406 454.219,0.691406 c -22.809,0 -41.645,6.464844 -56.516,19.414094 -14.871,12.9531 -22.305,31.289 -22.305,55.039 0,30.7935 11.961,53.0855 35.879,66.8755 13.121,7.5 32.418,12.875 57.883,16.085 l 22.457,2.762"
             inkscape:connector-curvature="0"
             id="path38"
             style="fill:#ffffff;fill-opacity:1;fill-rule:nonzero;stroke:none" /><path
             d="m 644.047,346.082 64.348,0 0,-182.73 82.605,94.492 81.445,0 -89.777,-93.324 93.254,-156.01219 -79.711,0 -60.688,107.01219 -27.128,-28.1958 0,-78.81639 -64.348,0 0,337.57419"
             inkscape:connector-curvature="0"
             id="path40"
             style="fill:#ffffff;fill-opacity:1;fill-rule:nonzero;stroke:none" /><path
             d="m 962.32,197.336 c -9.258,-9.531 -15.07,-22.465 -17.449,-38.774 l 112.839,0 c -1.2,17.383 -7.01,30.579 -17.45,39.583 -10.44,9.003 -23.39,13.503 -38.84,13.503 -16.815,0 -29.85,-4.773 -39.1,-14.312 z m 97.98,56.578 c 17.47,-7.824 31.9,-20.176 43.28,-37.051 10.26,-14.883 16.92,-32.144 19.96,-51.797 1.77,-11.504 2.49,-28.074 2.16,-49.707 l -182.438,0 c 1.019,-25.1246 9.75,-42.7418 26.195,-52.8473 10.008,-6.289 22.043,-9.4375 36.113,-9.4375 14.92,0 27.04,3.8281 36.37,11.5039 5.08,4.1328 9.58,9.875 13.48,17.2305 l 66.86,0 C 1120.52,66.9414 1112.43,51.8555 1098,36.5312 1075.56,12.1797 1044.15,0 1003.76,0 c -33.33,0 -62.744,10.2734 -88.229,30.8086 -25.48,20.5469 -38.222,53.9883 -38.222,100.2934 0,43.39 11.5,76.664 34.507,99.816 23.004,23.152 52.864,34.734 89.574,34.734 21.8,0 41.44,-3.914 58.91,-11.738"
             inkscape:connector-curvature="0"
             id="path42"
             style="fill:#ffffff;fill-opacity:1;fill-rule:nonzero;stroke:none" /><path
             d="m 1288.56,264.848 c 0.84,-0.078 2.71,-0.196 5.62,-0.344 l 0,-67.102 c -4.13,0.457 -7.81,0.762 -11.02,0.918 -3.22,0.149 -5.83,0.227 -7.81,0.227 -26.36,0 -44.06,-8.574 -53.09,-25.735 -5.06,-9.66 -7.58,-24.523 -7.58,-44.582 l 0,-119.72219 -65.96,0 0,250.48019 62.51,0 0,-43.668 c 10.11,16.7 18.91,28.118 26.42,34.246 12.26,10.262 28.19,15.399 47.8,15.399 1.22,0 2.26,-0.039 3.11,-0.117"
             inkscape:connector-curvature="0"
             id="path44"
             style="fill:#ffffff;fill-opacity:1;fill-rule:nonzero;stroke:none" /><path
             d="m 1327.97,8.50781 0,338.72619 70.33,0 0,-129.148 131.68,0 0,129.148 70.32,0 0,-338.72619 -70.32,0 0,151.21119 -131.68,0 0,-151.21119 -70.33,0"
             inkscape:connector-curvature="0"
             id="path46"
             style="fill:#ffffff;fill-opacity:1;fill-rule:nonzero;stroke:none" /><path
             d="m 1718.88,258.988 0,-150.98 c 0,-14.2463 1.68,-24.9728 5.03,-32.1799 5.95,-12.7148 17.61,-19.0703 34.99,-19.0703 22.26,0 37.5,9.0352 45.73,27.1211 4.27,9.8047 6.4,22.7541 6.4,38.8361 l 0,136.273 66.42,0 0,-250.48019 -63.66,0 0,35.38669 c -0.61,-0.7695 -2.13,-3.0664 -4.58,-6.8906 -2.45,-3.8398 -5.35,-7.207 -8.71,-10.1172 -10.23,-9.1914 -20.12,-15.4687 -29.67,-18.85154 -9.56,-3.35547 -20.75,-5.0586 -33.58,-5.0586 -36.97,0 -61.86,13.33984 -74.71,40.00004 -7.17,14.707 -10.76,36.3789 -10.76,65.0314 l 0,150.98 67.1,0"
             inkscape:connector-curvature="0"
             id="path48"
             style="fill:#ffffff;fill-opacity:1;fill-rule:nonzero;stroke:none" /><path
             d="m 2090.83,76.3008 c 9.42,13.6328 14.14,31.5512 14.14,53.7652 0,17.778 -2.32,32.485 -6.96,44.122 -8.8,22.062 -25.02,33.085 -48.65,33.085 -23.94,0 -40.4,-10.796 -49.36,-32.402 -4.63,-11.48 -6.95,-26.348 -6.95,-44.566 0,-21.457 4.79,-39.2308 14.37,-53.3245 9.58,-14.0977 24.17,-21.1407 43.8,-21.1407 16.98,0 30.19,6.8164 39.61,20.461 z m 54.74,152.5862 c 18.74,-23.75 28.11,-54.383 28.11,-91.922 0,-38.9181 -9.24,-71.172 -27.72,-96.7502 -18.47,-25.5859 -44.28,-38.37886 -77.38,-38.37886 -20.79,0 -37.5,4.13281 -50.13,12.41016 -7.54,4.9023 -15.7,13.4805 -24.48,25.7422 l 0,-31.48049 -64.57,0 0,338.26519 65.49,0 0,-120.418 c 8.33,11.641 17.5,20.532 27.53,26.657 11.86,7.664 26.98,11.492 45.33,11.492 33.14,0 59.09,-11.871 77.82,-35.617"
             inkscape:connector-curvature="0"
             id="path50"
             style="fill:#ffffff;fill-opacity:1;fill-rule:nonzero;stroke:none" /><path
             d="m 2170.18,380.23 10.33,-80.171 c 1.2,-9.297 9.11,-16.254 18.49,-16.254 l 91.46,0 c 9.37,0 17.29,6.957 18.49,16.254 l 10.33,80.171 -74.55,43.04 -74.55,-43.04"
             inkscape:connector-curvature="0"
             id="path52"
             style="fill:#f8a30d;fill-opacity:1;fill-rule:nonzero;stroke:none" /><path
             d="m 2319.28,638.469 -10.33,80.093 c -1.2,9.293 -9.12,16.25 -18.49,16.25 l -91.47,0 c -9.37,0 -17.28,-6.957 -18.48,-16.25 l -10.33,-80.093 74.55,-43.039 74.55,43.039"
             inkscape:connector-curvature="0"
             id="path54"
             style="fill:#f8a30d;fill-opacity:1;fill-rule:nonzero;stroke:none" /><path
             d="m 2393.95,509.348 64.68,49.254 c 7.46,5.683 9.54,16.031 4.84,24.156 l -45.8,79.203 c -4.69,8.113 -14.67,11.48 -23.31,7.867 l -75.08,-31.359 0,-86.082 74.67,-43.039"
             inkscape:connector-curvature="0"
             id="path56"
             style="fill:#f79110;fill-opacity:1;fill-rule:nonzero;stroke:none" /><path
             d="m 2095.76,509.348 -64.6,-49.262 c -7.45,-5.68 -9.52,-16.012 -4.84,-24.129 l 45.65,-79.184 c 4.68,-8.128 14.68,-11.503 23.34,-7.882 l 74.87,31.339 0,86.079 -74.42,43.039"
             inkscape:connector-curvature="0"
             id="path58"
             style="fill:#f79110;fill-opacity:1;fill-rule:nonzero;stroke:none" /><path
             d="m 2319.59,552.598 0,86.078 -74.55,-43.039 74.55,-43.039"
             inkscape:connector-curvature="0"
             id="path60"
             style="fill:#fab40a;fill-opacity:1;fill-rule:nonzero;stroke:none" /><path
             d="m 2170.18,638.469 -74.84,31.336 c -8.66,3.625 -18.66,0.25 -23.34,-7.879 l -45.68,-79.192 c -4.68,-8.113 -2.61,-18.445 4.84,-24.125 l 64.57,-49.261 74.45,43.039 0,86.082"
             inkscape:connector-curvature="0"
             id="path62"
             style="fill:#fab40a;fill-opacity:1;fill-rule:nonzero;stroke:none" /><path
             d="m 2319.28,466.309 0,-86.079 75.1,-31.363 c 8.65,-3.613 18.63,-0.242 23.32,7.871 l 45.77,79.2 c 4.7,8.124 2.62,18.472 -4.84,24.156 l -64.72,49.254 -74.63,-43.039"
             inkscape:connector-curvature="0"
             id="path64"
             style="fill:#fab40a;fill-opacity:1;fill-rule:nonzero;stroke:none" /><path
             d="m 2245.04,423.477 74.55,-43.039 0,86.082 -74.55,-43.043"
             inkscape:connector-curvature="0"
             id="path66"
             style="fill:#f79110;fill-opacity:1;fill-rule:nonzero;stroke:none" /><path
             d="m 2170.49,552.598 -74.55,-43.039 74.55,-43.039 0,86.078"
             inkscape:connector-curvature="0"
             id="path68"
             style="fill:#f8a30d;fill-opacity:1;fill-rule:nonzero;stroke:none" /><path
             d="m 2170,635.211 0,-258.969 225.96,133.106 L 2170,635.211"
             inkscape:connector-curvature="0"
             id="path70"
             style="fill:#ffffff;fill-opacity:1;fill-rule:nonzero;stroke:none" /></g></g></g></g><g
     inkscape:groupmode="layer"
     id="layer1"
     inkscape:label="Guides"
     style="display:none"><rect
       style="fill:#0000ff;fill-rule:evenodd;stroke:#000000;stroke-width:0.50879931px;stroke-linecap:butt;stroke-linejoin:miter;stroke-opacity:1"
       id="rect4010"
       width="299.49094"
       height="299.49121"
       x="40.254402"
       y="740.25439" /><rect
       style="fill:#0000ff;fill-rule:evenodd;stroke:#000000;stroke-width:0.50879931px;stroke-linecap:butt;stroke-linejoin:miter;stroke-opacity:1"
       id="rect4010-3"
       width="299.49094"
       height="299.49121"
       x="377.44266"
       y="741.03162" /><rect
       style="fill:#0000ff;fill-rule:evenodd;stroke:#000000;stroke-width:0.50879931px;stroke-linecap:butt;stroke-linejoin:miter;stroke-opacity:1"
       id="rect4010-3-0"
       width="299.49094"
       height="299.49121"
       x="717.80402"
       y="741.03162" /><rect
       y="741.03162"
       x="717.80402"
       height="299.49121"
       width="299.49094"
       id="rect4059"
       style="fill:#0000ff;fill-rule:evenodd;stroke:#000000;stroke-width:0.50879931px;stroke-linecap:butt;stroke-linejoin:miter;stroke-opacity:1" /></g><g
     inkscape:groupmode="layer"
     id="layer2"
     inkscape:label="Logos"
     style="display:inline" /><g
     inkscape:groupmode="layer"
     id="layer3"
     inkscape:label="Text"
     style="display:inline"><text
       xml:space="preserve"
       style="font-style:normal;font-variant:normal;font-weight:normal;font-stretch:normal;font-size:81.25px;line-height:125%;font-family:'ChunkFive Ex';-inkscape-font-specification:'ChunkFive Ex';letter-spacing:0px;word-spacing:0px;fill:#ffffff;fill-opacity:1;stroke:none"
       x="91.861389"
       y="118.78489"
       id="text3929-0"
       sodipodi:linespacing="125%"
       inkscape:export-filename="C:\Users\samkristoff\Desktop\Icons\Thumbnail\Sparkfun Inventor's Kit for LabVIEW\13 - DC Motor.png"
       inkscape:export-xdpi="90"
       inkscape:export-ydpi="90"><tspan
         sodipodi:role="line"
         x="91.861389"
         y="118.78489"
         style="font-style:normal;font-variant:normal;font-weight:bold;font-stretch:normal;font-size:81.25px;line-height:125%;font-family:'Segoe UI';-inkscape-font-specification:'Segoe UI Bold';fill:#ffffff;fill-opacity:1"
         id="tspan3034" /><tspan
         sodipodi:role="line"
         x="91.861389"
         y="220.34738"
         style="font-style:normal;font-variant:normal;font-weight:bold;font-stretch:normal;font-size:81.25px;line-height:125%;font-family:'Segoe UI';-inkscape-font-specification:'Segoe UI Bold';fill:#ffffff;fill-opacity:1"
         id="tspan3136">Digilent Physical Computing Kit for LabVIEW</tspan><tspan
         sodipodi:role="line"
         x="91.861389"
         y="321.90988"
         style="font-style:normal;font-variant:normal;font-weight:bold;font-stretch:normal;font-size:81.25px;line-height:125%;font-family:'Segoe UI';-inkscape-font-specification:'Segoe UI Bold';fill:#ffffff;fill-opacity:1"
         id="tspan4229">05 | Push Button</tspan><tspan
         sodipodi:role="line"
         x="91.861389"
         y="423.47238"
         style="font-style:normal;font-variant:normal;font-weight:bold;font-stretch:normal;font-size:81.25px;line-height:125%;font-family:'Segoe UI';-inkscape-font-specification:'Segoe UI Bold';fill:#ffffff;fill-opacity:1"
         id="tspan3966-8" /></text>
<g
       id="g3056"
       transform="matrix(2.1118276,0,0,2.1118276,1228.7297,168.07311)" /><g
       id="g3058"
       transform="matrix(2.1118276,0,0,2.1118276,1228.7297,168.07311)" /><g
       id="g3060"
       transform="matrix(2.1118276,0,0,2.1118276,1228.7297,168.07311)" /><g
       id="g3062"
       transform="matrix(2.1118276,0,0,2.1118276,1228.7297,168.07311)" /><g
       id="g3064"
       transform="matrix(2.1118276,0,0,2.1118276,1228.7297,168.07311)" /><g
       id="g3066"
       transform="matrix(2.1118276,0,0,2.1118276,1228.7297,168.07311)" /><g
       id="g3068"
       transform="matrix(2.1118276,0,0,2.1118276,1228.7297,168.07311)" /><g
       id="g3070"
       transform="matrix(2.1118276,0,0,2.1118276,1228.7297,168.07311)" /><g
       id="g3072"
       transform="matrix(2.1118276,0,0,2.1118276,1228.7297,168.07311)" /><g
       id="g3074"
       transform="matrix(2.1118276,0,0,2.1118276,1228.7297,168.07311)" /><g
       id="g3076"
       transform="matrix(2.1118276,0,0,2.1118276,1228.7297,168.07311)" /><g
       id="g3078"
       transform="matrix(2.1118276,0,0,2.1118276,1228.7297,168.07311)" /><g
       id="g3080"
       transform="matrix(2.1118276,0,0,2.1118276,1228.7297,168.07311)" /><g
       id="g3082"
       transform="matrix(2.1118276,0,0,2.1118276,1228.7297,168.07311)" /><g
       id="g3084"
       transform="matrix(2.1118276,0,0,2.1118276,1228.7297,168.07311)" /><g
       style="display:inline"
       id="g3816"
       transform="matrix(0.9088056,0,0,0.9088056,368.73161,843.17734)"><path
         inkscape:connector-curvature="0"
         d="m 184.20169,-110.08703 c -0.3159,0.009 -0.66345,0.0387 -1.0312,0.0937 -3.5081,0.52536 -5.6268,2.6768 -7.4062,4.875 -1.7795,2.1982 -3.2583,4.7707 -4.625,7.562502 -2.7334,5.5836 -4.9507,11.983 -6.3438,16.844 -3.0302,10.573 -7.0052,28.692 -5.4062,43.719 0.93112,8.7501 0.54108,13.261 0.0625,15.562 -0.47858,2.3012 -1.3668,1.9516 -1.7188,5.5625 -0.26734,2.7425 -0.21046,5.2753 -0.34375,7.1249996 -0.11632,1.6142 -0.40414,2.1446 -0.34375,2.1562 -0.12762,-0.0361 -0.15122,-0.0425 -0.78125,-0.15625 -1.8231,-0.32908 -5.448,-1.6802 -10.719,-4.5624996 -4.004,-2.1895 -8.384,-1.8811 -12.156,-0.9375 -3.7722,0.94363 -7.2605,2.6062996 -10.344,4.1874996 l -9.4688,4.8438 9.5,4.06250004 c -2.5975,1.60419996 -5.3988,3.21779996 -8.0312,4.31249996 -0.0731,-0.75821 -0.15114,-1.5601 -0.65625,-2.5312 l -2.0938,-4 -4.1875,1.65620004 C 99.587287,3.6608216 91.568687,2.2300216 83.482687,-1.1808784 c -8.0856,-3.4109 -15.74,-8.8175 -22.688,-12.6879996 -3.889,-2.1664 -6.4809,-5.6253 -9.4062,-10 -2.9254,-4.3747 -6.0945,-9.6162 -11.625,-13.75 -2.3719,-1.7729 -5.2939,-3.2997 -8.2188,-5 -2.9249,-1.7003 -5.7857,-3.5436 -7.1875,-4.9062 -1.4501,-1.4095 -3.2105,-1.5837 -4.2188,-1.5 -1.0083,0.0837 -1.625,0.35975 -2.1875,0.625 -1.125,0.5305 -1.9363,1.1768 -2.75,2 -1.6274,1.6465 -3.1097,4.0091 -4,7.125 -1.7805996,6.2317 -1.015,15.193 5.5,26.688 3.5774,6.3114996 8.3212,13.24299964 12.219,19.6559996 3.8976,6.4134004 6.725,12.6039974 6.9688,15.3119974 1.1056,12.286 2.3118,18.033 4.3438,22.656 2.0319,4.6234 4.2174,7.041 7.4375,14.062 2.0187,4.4017 1.8808,6.4561 1.4688,7.625 -0.41204,1.1689 -1.5749,2.4103 -4.0312,4.0625 -4.9128,3.3045 -14.148,7.4001 -18.656,17.906 l -2.5625,5.9375 6.4062,0.96875 c 1.0988,0.16704 2.0147,0.19284 3,0.25 l -1.6562,2 2.5625,3.187501 c 3.6035,4.4754 8.2936,6.4972 11.312,8.3125 1.5094,0.90766 2.5718,1.7467 3.0625,2.3125 0.49073,0.56578 0.55899,0.65723 0.5625,1.375 0.0154,3.1426 -0.98543,5.762 -3,8.9688 -2.0146,3.2067 -5.0534,6.8102 -8.3125,11.188 -6.5181,8.7546 -13.711,20.89 -14.625,40.094 l -0.4375,9.2188 7.9688,-4.6875 c 2.0206,-1.1873 3.3944,-2.3186 4.9688,-3.5 0.26727,4.8295 2.1854,9.7307 5.875,13.938 l 3.5938,4.0625 3.75,-3.9062 c 1.1216,-1.163 1.864,-2.3318 2.5312,-3.4688 1.6592,2.5404 9.6582,-3.4185 11.8125,-1.9375 4.6025,3.164 9.3603,4.4352 12.719,5.9688 3.2521,1.485 6.8928,2.5177 10.469,2.9375 3.1789,0.37323 5.4455,2.1792 10.094,4.375 2.277,1.0756 5.038403,2.0181 8.406203,2.5938 10.53028,1.77031 22.72718,10.21006 47.23048,10.21574 36.32303,-1.78197 42.38403,-16.70128 73.5956,-28.44164 35.233,-3.2999 84.66972,-21.48385 104.76672,-40.76385 2.9242,-2.8053 0.64139,-6.6886 -6.8768,-5.5952 -8.7098,3.3968 -11.6,2.236 -17.312,-1.2849 4.3329,-4.9325 19.388,-11.161 28.031,-14.875 l 3.8125,-1.5625 -0.84375,-4.0625 c -1.8606,-8.9827 -8.8668,-15.147001 -16.281,-20.188001 -4.5562,-3.0973 -9.2675,-5.7661 -13.719,-8.3125 2.2762,-0.19197 4.9434,-0.40483 8.0938,-1.4375 l 6.9375,-2.2812 -4.625,-5.6562 c -7.6064,-9.2902 -20.654,-13.519 -32.531,-18.094 -11.877,-4.5751 -22.22,-9.5896 -25.094,-14.844 -3.3979,-6.2129 -5.0765,-15.791 -7.0938,-26.468997 -2.0172,-10.6780004 -4.5092,-22.4740004 -10.781,-33.281 -10.817,-18.638 -17.666,-42.243 -29.875,-62.188 -2.5266,-4.1274 -7.6344,-11.09 -12.812,-17.281 -2.5891,-3.095402 -5.1476,-5.944102 -7.5,-8.156202 -1.1762,-1.1061 -2.2821,-2.0494 -3.5,-2.8438 -0.91346,-0.59578 -1.8508,-1.3651 -3.5,-1.5312 -0.27486,-0.0277 -0.5591,-0.04 -0.875,-0.0312 z"
         style="fill:#000000;fill-opacity:1;fill-rule:evenodd;stroke:none"
         id="path3399-1"
         sodipodi:nodetypes="cccssscssccssccccccccscsscsscsccccccscccccccccccccccccccsccscccsccccccccccscscccccccc" /><path
         sodipodi:nodetypes="ccccccccscccssssccccccscccsccscscccscccccscccccccccccccccccccccscccccccsccsscsccsccccccccccccccsccsccccccssscccscccccccccccccccccccscscccccscccccsccsccccccccscssccccc"
         inkscape:connector-curvature="0"
         d="m 184.04169,-99.367028 c -0.19235,0.17987 -0.2975,0.24251 -0.53125,0.53125 -1.0182,1.2578 -2.2441,3.3135 -3.4062,5.6875 -2.3243,4.748 -4.4294,10.798 -5.6875,15.188 -1.3029,4.5457 -2.7699,10.84 -3.8438,17.5 1.0331,5.9593 2.1487,14.372 1.1875,18.969 -3.2768,15.67 13.484,43.6319996 16.781,43.5939996 0,0 1.7858,10.2230004 -1.0625,12.8440004 -0.7096,0.65293 -3.9536,0.62443 -3.2188,0 2.8892,-2.4552 0.86301,-12.5420004 -1.0625,-15.00000036 l -14.25,-18.15599964 c -0.699,2.9815 -1.3885,4.7334 -1.25,3.3125 -0.19148,1.9644 -0.16316,4.3689 -0.34375,6.8749996 -0.18059,2.5061 -0.39352,5.387 -2.6562,8.12500004 -2.26268,2.73799996 -6.4497,3.68039996 -10.219,2.99999996 -3.7691,-0.68036 -8.0054,-2.48359996 -13.75,-5.625 -0.71094,-0.38877 -2.0208,-0.44939 -3.7188,-0.1875 l 5.0938,4.25 -6.5,3.5 c -9.3606,5.0736004 -13.558,9.4331004 -24.906,11.9380004 -1.1058,0.24404 -3.3545,0.30183 -5.0625,-1.2812 -1.5548,-1.4411 -1.7397,-2.994 -1.75,-3.9688 -8.699803,1.3272 -17.022003,-0.6253 -24.281003,-3.6875004 -9.4363,-3.9806 -17.558,-9.7728 -23.688,-13.188 -6.1712,-3.4377 -9.7966,-8.5993996 -12.844,-13.1559996 -3.0472,-4.5569 -5.6191,-8.5519 -9.3125,-11.312 -1.1857,-0.88628 -4.1448,-2.5386 -7.25,-4.3438 -1.7492,-1.0169 -3.5464,-2.1343 -5.2812,-3.3438 -0.14826,0.3356 -0.28303,0.35003 -0.40625,0.78125 -0.89572,3.1348 -1.0368,9.1214 4.5625,19 3.2378,5.7123 7.9899,12.6529996 12.094,19.4059996 4.1039,6.7529 7.7863,13.0520004 8.375,19.5939974 1.072,11.912 2.1277,16.338 3.5312,19.531 1.4036,3.1936 3.831,6.2098 7.375,13.938 2.6206,5.7142 3.338,10.766 1.8125,15.094 -1.5255,4.3277 -4.8088,6.9688 -7.875,9.0312 -3.3206,2.2335 -6.5708,4.0904 -9.3438,6.3438 1.8988,-0.0949 3.9136,-0.0804 6.2812,0.34375 l 6,1.0625 -2.2188,5.6875 c -1.1412,2.8969 -3.3635,4.5837 -5.125,5.6562 1.3444,0.8383 2.7985,1.677 4.375,2.625001 1.8364,1.1043 3.7736,2.3581 5.4688,4.3125 1.6951,1.9544 2.985,4.833 3,7.9062 0.0269,5.4928 -1.9556,10.213 -4.5312,14.312 -2.5757,4.0999 -5.724,7.7795 -8.75,11.844 -4.5694,6.1373 -9.0041,13.042 -11.25,23.375 2.2913,-1.5806 4.8222,-3.0555 8.0625,-3.875 l 13.781,-3.4688 -8.5625,11.344 c -2.0351,2.7 -2.8397,5.2885 -2.4375,8.0312 0.84838,-1.6242 1.9603,-3.3435 3.8438,-4.9062 l 6.9062,-5.75 c -0.0115,16.703 19.987,17.398 38.188,19.531 -15.079,-18.025 1.7618,-49.754 2.0312,-49.5 -3.4531,1.1962 -7.1847,2.1401 -8.625,1.0938 -0.71833,-1.7563 2.5128,-4.6111 5.875,-6.375 -13.199,3.6449 -14.539,1.3995 -18.062,-0.75 -0.37092,2.0225 1.4391,4.5087 2.3438,6.5312 -4.4955,-0.60572 -4.543,-9.1411 -7.5625,-11.625 -1.1393,-1.8379 -0.55438,-3.3824 -0.625,-5.5 0.57292,-1.375 1.6458,-0.625 2.4688,0 3.174,9.7805 15.927,9.754 23.656,5.8125 2.9368,-2.1299 4.817603,-2.3709 6.062503,-7.375 1.2401,-4.9846 -7.285703,-7.9452 -17.625003,-8 -4.7811,0.0507 -8.8688,0.30276 -11.219,3.5625 l -3.6875,0 c -1.8084,-5.1725 -1.4248,-8.7937 -1.2812,-12.750001 -2.0765,-0.54237 -6.0684,1.433401 -10.125,3.531201 2.8116,-7.745001 8.1383,-12.343001 18.688,-10.594001 14.015,2.3244 25.385003,9.409301 37.875003,14.156001 -0.30957,2.497 -2.2243,5.0918 -2,7.0625 1.13,9.929 3.3099,7.26 5.0312,10.094 -8.4941,6.7245 -14.429,13.257 -18.406003,19.469 4.126603,-1.9603 10.077003,-3.7284 18.406003,-5.3125 5.8512,-1.1129 11.988,-2.4646 17.125,-2.3438 6.6047,0.15535 11.578,2.7496 12.188,11.438 0.83678,11.933 -11.10735,19.18292 -22.89929,25.01905 -1.345,0.66568 7.16079,26.18768 6.67121,27.80907 -0.0527,0.86467 -7.47676,-1.34913 -8.85871,-2.81072 -1.20667,-0.97607 -3.73171,-23.17581 -4.42721,-23.39471 -2.782,-0.87557 -10.054,-3.04367 -12.924,-5.43522 -2.7268,-2.2724 -8.659803,-6.2917 -11.344003,-10.656 -4.3206,20.775 13.217573,34.02028 20.938003,36.938 9.38511,4.48389 22.85132,8.98234 43.0625,9.125 l 0.1875,0 c 1.518,-0.0616 5.4804,-0.26188 9.375,-1.0312 3.8946,-0.76937 7.5511,-2.4823 8.2812,-3.3125 l 5.75,-6.5312 c 28.995,-19.471 8.9395,-30.768 0.3125,-43.969 8.243,2.3565 28.333,25.12 19.969,35.906 l 15.02,-16.91 c -0.091,2.4774 -0.46699,5.0396 -0.4375,7.4688 36.054,1.2234 66.31,-13.475 87,-31.188 -0.64457,-0.0284 -1.3111,-0.007 -1.9375,-0.0937 -2.2437,-0.31202 -4.5998,-0.8198 -6.5938,-3.1875 -0.99697,-1.1838 -1.688,-2.9555 -1.6875,-4.5938 5.5e-4,-1.6382 0.53863,-3.0537 1.2188,-4.25 1.3602,-2.3927 3.3817,-4.2696 6.2812,-6.4062 5.1205,-3.7733 13.871,-8.3086 26.25,-13.656 -2.0174,-3.5037 -5.7796,-6.9761 -10.688,-10.312 -6.6004,-4.486901 -14.767,-8.547201 -21.438,-12.906001 l -4.1562,-2.7188 2.7188,-4.1875 c 2.3177,-3.562 5.8818,-5.2434 9.0625,-6.0312 -5.5934,-3.1343 -12.641,-6.0715 -20,-8.9062 -11.995,-4.6205 -24.601,-8.9584 -30.281,-19.344 -4.6878,-8.5715 -6.1739,-18.913 -8.1562,-29.405997 -1.9823,-10.4930004 -4.3518,-21.1240004 -9.5938,-30.156 -11.696,-20.154 -18.543,-43.66 -29.75,-61.969 -1.9485,-3.183 -7.0666,-10.239 -11.938,-16.062 -2.4355,-2.9118 -4.8781,-5.5816 -6.7188,-7.3125 -0.50875,-0.47841 -0.77041,-0.65675 -1.1562,-0.96875 z m -157.280003,76.469 c 11.885,13.4379996 21.644,21.2109996 36.062,41.405997 l 1.0625,-6.406197 c 3.2648,6.438397 8.0595,12.657997 5,19.999997 1.7716,3.8028 6.9628,-0.3706 11.438,-2.875 0.51211,-3.0952 -2.9016,-6.186 -5,-9.2812 4.8373,3.147 9.6557,6.2417 13.562,2.875 -0.47779,-1.9048 -3.452,-3.814 -5.6875,-5.718797 3.9885,0.733397 6.2952,4.251997 12.844,0.718747 l 8.562503,0.6875 c -12.483003,4.9447 -19.125003,11.364 -28.219003,17.156 l -11.062,7.1562 c 5.8473,-1.7332 8.4269,-1.8414 8.5625,-0.71875 -1.131,2.381 -6.765,4.744 -13.562,7.125 2.8572,10e-6 7.875,0 7.875,0 -3.1772,2.1429 -5.8735,4.2946 -7.1562,6.4375 -1.5504,-2.5109 -5.9568,-3.7637 -5.3438,-10.344 0.88323,-9.4796 2.1488,-17.729 -0.375,-23.938 -2.1078,-5.185597 -8.1178,-19.5169974 -13.312,-21.68799736 -4.791,-2.00170004 -3.1092,-1.41860004 -5.7188,-3.31250004 -4.7858,-3.4732 -10.744,-18.9679996 -9.5312,-19.2809996 z m 178.750003,12.375 c -0.26523,6.0608996 -2.8596,12.1269996 0.5,18.1879996 2.459,0.94851 4.4477,-0.97694 5.5625,-8.09379996 -0.3456,1.0368 8.2623,11.86000036 8.0625,13.65600036 -0.25572,2.2987 -6.5625,4.0313 -6.5625,4.0312 2.6876,5.424797 9.7809,8.200297 19.188,9.593797 -2.7553,5.0879 -6.1605,7.8162 -11.594,3.5312 l -12.625,-11.594 c 3.0556,4.0507 8.4084,8.107 4.0312,10.094 -4.8824,-4.3574 -9.7738,-5.4829 -14.656,-14.655997 -2.9059,-5.4598004 4.6567,-17.4920004 8.0938,-24.75 z m -32.844,91.374997 c 8.2923,0.0405 14.471,1.2994 18.125,2.7188 l -3.25,5.25 c -11.1,3.2857 -25.31,-2.1359 -33.25,10 -1.866,9.053001 1.8713,15.855001 9.25,14.500001 7.3621,2.4831 24.32,-9.9606 37,-15.750001 1.0262,0.11239 -25.063,21.322001 -39.25,22.750001 -1.2825,5.7692 21.9,20.163 23.75,20 -1.7411,0.58037 -26.245,-9.2515 -32,-15.75 -1.4824,-1.674 -12.5,-2.5 -16.75,-4.25 -4.25,-1.75 -5.5,-13.75 -5.5,-13.75 9.0243,-11.869001 21.51,-23.707001 24.75,-24.250001 6.419,-1.0758 12.15,-1.4931 17.125,-1.4688 z m -42,56.625001 c -8.0846,0.20684 -23.027,4.8068 -26.688,7.0625 -5.303103,3.2678 13.625,7.9936 19.688,6.5625 5.0053,-1.1816 14.153,-7.3987 12.125,-12.125 -0.49638,-1.1571 -2.4301,-1.569 -5.125,-1.5 z"
         style="fill:#0acf00;fill-opacity:1;fill-rule:evenodd;stroke:none"
         id="path3397-7" /></g><g
       id="g4441"
       transform="matrix(15.98634,0,0,15.98634,1222.9086,338.7641)"
       style="fill:#ffffff"><g
         id="g4399"
         style="fill:#ffffff"><path
           id="path4401"
           d="M 6.357,8.51 C 6.181,7.914 6.012,7.317 5.885,6.745 5.05,6.251 4.482,5.352 4.482,4.313 4.482,2.75 5.753,1.48 7.315,1.48 c 1.562,0 2.833,1.271 2.833,2.833 0,0.215 -0.029,0.422 -0.074,0.623 0.271,0.597 0.49,1.269 0.682,1.952 0.54,-0.72 0.872,-1.605 0.872,-2.575 C 11.628,1.93 9.698,0 7.315,0 4.932,0 3.003,1.93 3.003,4.313 c 0,2.052 1.435,3.761 3.354,4.197 z"
           style="fill:#ffffff"
           inkscape:connector-curvature="0" /><path
           id="path4403"
           d="M 3.378,18.721 C 4.441,17.572 5.634,18.022 7.231,18.265 8.603,18.476 9.954,18.091 9.864,17.35 9.722,16.151 9.522,15.615 9.067,14.062 8.704,12.827 8.015,10.601 7.388,8.473 6.548,5.626 6.305,4.304 7.423,3.974 8.628,3.623 9.319,5.335 9.945,7.709 c 0.713,2.702 1.088,3.895 1.298,3.832 0.37,-0.106 -0.136,-1.262 0.832,-1.547 1.21,-0.352 1.444,0.594 1.783,0.499 0.339,-0.102 0.224,-1.06 1.189,-1.342 0.97,-0.28 1.457,0.914 1.857,0.795 0.396,-0.117 0.387,-0.548 0.985,-0.719 0.599,-0.178 2.853,0.831 4.143,5.238 1.619,5.541 -0.205,6.571 0.348,8.447 l -7.227,2.748 c -0.585,-1.407 -2.397,-1.511 -4,-2.408 C 9.538,22.343 8.441,20.572 4.232,20.658 2.649,20.69 2.724,19.428 3.378,18.721 Z"
           style="fill:#ffffff"
           inkscape:connector-curvature="0" /></g><g
         id="g4405"
         style="fill:#ffffff" /><g
         id="g4407"
         style="fill:#ffffff" /><g
         id="g4409"
         style="fill:#ffffff" /><g
         id="g4411"
         style="fill:#ffffff" /><g
         id="g4413"
         style="fill:#ffffff" /><g
         id="g4415"
         style="fill:#ffffff" /><g
         id="g4417"
         style="fill:#ffffff" /><g
         id="g4419"
         style="fill:#ffffff" /><g
         id="g4421"
         style="fill:#ffffff" /><g
         id="g4423"
         style="fill:#ffffff" /><g
         id="g4425"
         style="fill:#ffffff" /><g
         id="g4427"
         style="fill:#ffffff" /><g
         id="g4429"
         style="fill:#ffffff" /><g
         id="g4431"
         style="fill:#ffffff" /><g
         id="g4433"
         style="fill:#ffffff" /></g></g><g
     inkscape:groupmode="layer"
     id="layer4"
     inkscape:label="Kinect One" /></svg>