<?xml version="1.0" encoding="UTF-8" standalone="no"?>
<!-- Created with Inkscape (http://www.inkscape.org/) -->

<svg
   xmlns:dc="http://purl.org/dc/elements/1.1/"
   xmlns:cc="http://creativecommons.org/ns#"
   xmlns:rdf="http://www.w3.org/1999/02/22-rdf-syntax-ns#"
   xmlns:svg="http://www.w3.org/2000/svg"
   xmlns="http://www.w3.org/2000/svg"
   xmlns:sodipodi="http://sodipodi.sourceforge.net/DTD/sodipodi-0.dtd"
   xmlns:inkscape="http://www.inkscape.org/namespaces/inkscape"
   version="1.1"
   width="1920"
   height="1080"
   id="svg2"
   xml:space="preserve"
   inkscape:version="0.48.4 r9939"
   sodipodi:docname="MakerHub Interface for Leap Motion Controller FAQ.svg"
   inkscape:export-filename="C:\github\makerhub\Website\Media\Images\Libraries\Leap\export\MakerHub Interface for Leap Motion Controller FAQ 460.png"
   inkscape:export-xdpi="21.559999"
   inkscape:export-ydpi="21.559999"><sodipodi:namedview
   pagecolor="#ffffff"
   bordercolor="#666666"
   borderopacity="1"
   objecttolerance="10"
   gridtolerance="10"
   guidetolerance="10"
   inkscape:pageopacity="0"
   inkscape:pageshadow="2"
   inkscape:window-width="1920"
   inkscape:window-height="1017"
   id="namedview3019"
   showgrid="false"
   inkscape:zoom="0.2457421"
   inkscape:cx="2022.4379"
   inkscape:cy="318.35124"
   inkscape:window-x="1912"
   inkscape:window-y="-8"
   inkscape:window-maximized="1"
   inkscape:current-layer="svg2"
   showguides="true"
   inkscape:guide-bbox="true"><sodipodi:guide
     orientation="1,0"
     position="1440,799.61879"
     id="guide3040" /><sodipodi:guide
     orientation="0,1"
     position="706.02473,540"
     id="guide3042" /></sodipodi:namedview><metadata
   id="metadata8"><rdf:RDF><cc:Work
       rdf:about=""><dc:format>image/svg+xml</dc:format><dc:type
         rdf:resource="http://purl.org/dc/dcmitype/StillImage" /><dc:title></dc:title></cc:Work></rdf:RDF></metadata><defs
   id="defs6"><linearGradient
     id="linearGradient4153"><stop
       style="stop-color:#828282;stop-opacity:1;"
       offset="0"
       id="stop4155" /><stop
       style="stop-color:#919191;stop-opacity:1;"
       offset="1"
       id="stop4157" /></linearGradient><clipPath
     id="clipPath18"><path
       d="M 0,734.812 0,0 l 2465.98,0 0,734.812 -2465.98,0 z"
       inkscape:connector-curvature="0"
       id="path20" /></clipPath></defs><path
   style="fill:#919191;fill-opacity:1;fill-rule:evenodd;stroke:none;stroke-opacity:1"
   d="m 0,0 c 639.99999,0 1280,0 1920,0 0,360 0,720.00001 0,1080 -640,0 -1280.00001,0 -1920,0 C 0,720.00001 0,360 0,0 z"
   id="rect3789"
   inkscape:connector-curvature="0" /><g
   id="g3899"
   transform="matrix(3.2707529,0,0,-3.2707529,1058.7202,1033.0507)"><g
     transform="scale(0.1,0.1)"
     id="g12"><g
       id="g14"><g
         clip-path="url(#clipPath18)"
         id="g16"><path
           d="m 0,393.57 0,184.832 17.457,0 0,-169.945 99.09,0 0,-14.887 -116.547,0"
           inkscape:connector-curvature="0"
           id="path22"
           style="fill:#fab40a;fill-opacity:1;fill-rule:nonzero;stroke:none" /><path
           d="m 222.309,463.395 c -6.504,-2.743 -13.09,-4.54 -19.766,-5.391 -6.676,-0.856 -13.348,-1.539 -20.023,-2.051 -11.805,-0.859 -21.012,-3.512 -27.598,-7.961 -6.586,-4.453 -9.883,-11.211 -9.883,-20.281 0,-4.109 0.813,-7.66 2.441,-10.652 1.622,-2.997 3.758,-5.481 6.415,-7.446 2.652,-1.968 5.734,-3.425 9.246,-4.363 3.504,-0.941 7.058,-1.41 10.652,-1.41 6.156,0 12.148,0.769 17.969,2.308 5.816,1.543 10.996,3.891 15.535,7.059 4.527,3.164 8.168,7.188 10.906,12.066 2.735,4.879 4.106,10.657 4.106,17.329 l 0,20.793 z m -25.926,7.703 c 2.91,0.336 6.375,0.855 10.398,1.539 4.02,0.683 7.317,1.625 9.883,2.824 2.566,1.195 4.148,3.211 4.746,6.031 0.602,2.824 0.899,5.434 0.899,7.828 0,7.871 -2.524,14.336 -7.575,19.387 -5.046,5.043 -13.562,7.57 -25.539,7.57 -5.308,0 -10.187,-0.472 -14.633,-1.41 -4.449,-0.941 -8.339,-2.566 -11.679,-4.879 -3.336,-2.308 -6.074,-5.386 -8.215,-9.242 -2.145,-3.851 -3.555,-8.687 -4.238,-14.5 l -15.66,0 c 0.511,7.863 2.308,14.582 5.39,20.149 3.082,5.558 7.063,10.093 11.942,13.605 4.875,3.508 10.527,6.074 16.941,7.699 6.418,1.625 13.223,2.442 20.41,2.442 6.676,0 12.965,-0.731 18.867,-2.18 5.903,-1.457 11.039,-3.766 15.403,-6.938 4.363,-3.168 7.785,-7.402 10.265,-12.703 2.481,-5.308 3.727,-11.804 3.727,-19.511 l 0,-72.395 c 0,-5.988 1.062,-9.797 3.207,-11.418 2.14,-1.633 6.461,-1.246 12.965,1.152 l 0,-12.066 c -1.199,-0.344 -2.953,-0.855 -5.266,-1.539 -2.309,-0.684 -4.578,-1.027 -6.801,-1.027 -2.394,0 -4.707,0.257 -6.933,0.769 -2.563,0.348 -4.617,1.156 -6.157,2.442 -1.542,1.281 -2.785,2.824 -3.726,4.621 -0.942,1.797 -1.582,3.757 -1.922,5.902 -0.348,2.137 -0.516,4.402 -0.516,6.801 -6.507,-7.188 -13.949,-12.664 -22.332,-16.426 -8.386,-3.766 -17.457,-5.648 -27.211,-5.648 -5.82,0 -11.425,0.769 -16.816,2.308 -5.391,1.543 -10.137,3.938 -14.25,7.188 -4.105,3.254 -7.355,7.23 -9.754,11.937 -2.398,4.707 -3.594,10.309 -3.594,16.817 0,22.589 15.489,35.937 46.469,40.043 l 21.305,2.828"
           inkscape:connector-curvature="0"
           id="path24"
           style="fill:#fab40a;fill-opacity:1;fill-rule:nonzero;stroke:none" /><path
           d="m 290.082,460.57 c 0,-8.047 0.98,-15.531 2.953,-22.461 1.965,-6.933 4.832,-12.925 8.602,-17.968 3.758,-5.051 8.468,-9.032 14.117,-11.938 5.648,-2.914 12.062,-4.363 19.258,-4.363 6.496,0 12.488,1.156 17.968,3.465 5.473,2.308 10.266,5.687 14.375,10.136 4.106,4.45 7.313,9.887 9.625,16.305 2.313,6.414 3.465,13.816 3.465,22.207 0.34,8.383 -0.343,16.211 -2.05,23.485 -1.715,7.277 -4.454,13.648 -8.219,19.124 -3.766,5.477 -8.598,9.797 -14.5,12.965 -5.906,3.164 -12.801,4.75 -20.664,4.75 -7.024,0 -13.313,-1.496 -18.875,-4.492 -5.563,-2.996 -10.27,-7.019 -14.117,-12.062 -3.852,-5.055 -6.805,-10.957 -8.856,-17.715 -2.055,-6.766 -3.082,-13.906 -3.082,-21.438 z m 0,-67 -15.402,0 0,184.832 15.402,0 0,-73.164 c 4.961,8.215 11.766,14.418 20.41,18.614 8.641,4.191 17.668,6.289 27.082,6.289 10.098,0 18.871,-1.922 26.313,-5.778 7.445,-3.851 13.609,-8.98 18.484,-15.402 4.879,-6.418 8.512,-13.906 10.91,-22.461 2.395,-8.562 3.594,-17.457 3.594,-26.699 0,-9.758 -1.113,-18.91 -3.336,-27.465 -2.227,-8.563 -5.773,-15.965 -10.652,-22.207 -4.879,-6.25 -11.086,-11.168 -18.614,-14.762 -7.535,-3.594 -16.683,-5.39 -27.464,-5.39 -4.286,0 -8.649,0.597 -13.098,1.796 -4.453,1.2 -8.77,2.911 -12.965,5.129 -4.191,2.231 -8.047,5.012 -11.551,8.348 -3.507,3.34 -6.379,7.227 -8.597,11.68 l -0.516,0 0,-23.36"
           inkscape:connector-curvature="0"
           id="path26"
           style="fill:#fab40a;fill-opacity:1;fill-rule:nonzero;stroke:none" /><path
           d="m 410.738,578.402 18.227,0 55.707,-164.297 55.449,164.297 18.231,0 -64.18,-184.832 -19.254,0 -64.18,184.832"
           inkscape:connector-curvature="0"
           id="path28"
           style="fill:#fab40a;fill-opacity:1;fill-rule:nonzero;stroke:none" /><path
           d="m 584.785,393.57 17.457,0 0,184.832 -17.457,0 0,-184.832 z"
           inkscape:connector-curvature="0"
           id="path30"
           style="fill:#fab40a;fill-opacity:1;fill-rule:nonzero;stroke:none" /><path
           d="m 644.859,393.57 0,184.832 122.961,0 0,-14.886 -105.508,0 0,-66.746 95.243,0 0,-14.891 -95.243,0 0,-73.422 108.079,0 0,-14.887 -125.532,0"
           inkscape:connector-curvature="0"
           id="path32"
           style="fill:#fab40a;fill-opacity:1;fill-rule:nonzero;stroke:none" /><path
           d="m 941.617,418.215 0.516,0 40.305,160.187 17.972,0 -48.523,-184.832 -19.254,0 -42.871,163.27 -0.516,0 -42.867,-163.27 -19.254,0 -47.75,184.832 17.457,0 39.789,-160.187 0.512,0 42.871,160.187 19.512,0 42.101,-160.187"
           inkscape:connector-curvature="0"
           id="path34"
           style="fill:#fab40a;fill-opacity:1;fill-rule:nonzero;stroke:none" /><path
           d="m 239.762,347.234 101.843,0 0,-338.72619 -65.953,0 0,229.10919 c 0,6.586 0.075,15.817 0.231,27.692 0.152,11.871 0.23,21.031 0.23,27.461 L 211.926,8.50781 l -68.797,0 L 79.3984,292.77 c 0,-6.43 0.0743,-15.59 0.2305,-27.461 0.1523,-11.875 0.2305,-21.106 0.2305,-27.692 l 0,-229.10919 -65.9532,0 0,338.72619 102.9918,0 61.661,-266.3434 61.203,266.3434"
           inkscape:connector-curvature="0"
           id="path36"
           style="fill:#ffffff;fill-opacity:1;fill-rule:nonzero;stroke:none" /><path
           d="m 531.664,130.305 c -4.191,-2.621 -8.426,-4.719 -12.699,-6.328 -4.274,-1.606 -10.133,-3.11 -17.582,-4.473 l -14.914,-2.766 c -13.973,-2.453 -24.008,-5.437 -30.102,-8.957 -10.316,-5.972 -15.472,-15.2537 -15.472,-27.8083 0,-11.1954 3.148,-19.2696 9.453,-24.2422 6.293,-4.9766 13.961,-7.4766 22.98,-7.4766 14.313,0 27.496,4.1406 39.555,12.4219 12.055,8.2578 18.312,23.3554 18.781,45.2622 l 0,24.367 z m -40.047,30.562 c 12.192,1.528 20.906,3.442 26.156,5.742 9.415,3.989 14.122,10.176 14.122,18.618 0,10.25 -3.61,17.339 -10.833,21.25 -7.218,3.906 -17.82,5.859 -31.792,5.859 -15.684,0 -26.793,-3.828 -33.313,-11.484 -4.664,-5.668 -7.769,-13.332 -9.316,-22.993 l -63.2,0 c 1.383,21.914 7.539,39.914 18.461,54.004 17.391,22.071 47.239,33.102 89.559,33.102 27.539,0 52,-5.438 73.394,-16.317 21.383,-10.882 32.079,-31.414 32.079,-61.589 l 0,-114.9028 c 0,-7.9687 0.152,-17.6132 0.461,-28.9531 0.457,-8.5859 1.753,-14.4023 3.906,-17.4726 2.14,-3.0625 5.359,-5.586 9.652,-7.5782 l 0,-9.64449 -71.242,0 c -1.992,5.04689 -3.371,9.80079 -4.137,14.23439 -0.769,4.4531 -1.379,9.5039 -1.84,15.1797 C 524.645,28.1133 514.16,19.7578 502.301,12.8594 488.121,4.75781 472.094,0.691406 454.219,0.691406 c -22.809,0 -41.645,6.464844 -56.516,19.414094 -14.871,12.9531 -22.305,31.289 -22.305,55.039 0,30.7935 11.961,53.0855 35.879,66.8755 13.121,7.5 32.418,12.875 57.883,16.085 l 22.457,2.762"
           inkscape:connector-curvature="0"
           id="path38"
           style="fill:#ffffff;fill-opacity:1;fill-rule:nonzero;stroke:none" /><path
           d="m 644.047,346.082 64.348,0 0,-182.73 82.605,94.492 81.445,0 -89.777,-93.324 93.254,-156.01219 -79.711,0 -60.688,107.01219 -27.128,-28.1958 0,-78.81639 -64.348,0 0,337.57419"
           inkscape:connector-curvature="0"
           id="path40"
           style="fill:#ffffff;fill-opacity:1;fill-rule:nonzero;stroke:none" /><path
           d="m 962.32,197.336 c -9.258,-9.531 -15.07,-22.465 -17.449,-38.774 l 112.839,0 c -1.2,17.383 -7.01,30.579 -17.45,39.583 -10.44,9.003 -23.39,13.503 -38.84,13.503 -16.815,0 -29.85,-4.773 -39.1,-14.312 z m 97.98,56.578 c 17.47,-7.824 31.9,-20.176 43.28,-37.051 10.26,-14.883 16.92,-32.144 19.96,-51.797 1.77,-11.504 2.49,-28.074 2.16,-49.707 l -182.438,0 c 1.019,-25.1246 9.75,-42.7418 26.195,-52.8473 10.008,-6.289 22.043,-9.4375 36.113,-9.4375 14.92,0 27.04,3.8281 36.37,11.5039 5.08,4.1328 9.58,9.875 13.48,17.2305 l 66.86,0 C 1120.52,66.9414 1112.43,51.8555 1098,36.5312 1075.56,12.1797 1044.15,0 1003.76,0 c -33.33,0 -62.744,10.2734 -88.229,30.8086 -25.48,20.5469 -38.222,53.9883 -38.222,100.2934 0,43.39 11.5,76.664 34.507,99.816 23.004,23.152 52.864,34.734 89.574,34.734 21.8,0 41.44,-3.914 58.91,-11.738"
           inkscape:connector-curvature="0"
           id="path42"
           style="fill:#ffffff;fill-opacity:1;fill-rule:nonzero;stroke:none" /><path
           d="m 1288.56,264.848 c 0.84,-0.078 2.71,-0.196 5.62,-0.344 l 0,-67.102 c -4.13,0.457 -7.81,0.762 -11.02,0.918 -3.22,0.149 -5.83,0.227 -7.81,0.227 -26.36,0 -44.06,-8.574 -53.09,-25.735 -5.06,-9.66 -7.58,-24.523 -7.58,-44.582 l 0,-119.72219 -65.96,0 0,250.48019 62.51,0 0,-43.668 c 10.11,16.7 18.91,28.118 26.42,34.246 12.26,10.262 28.19,15.399 47.8,15.399 1.22,0 2.26,-0.039 3.11,-0.117"
           inkscape:connector-curvature="0"
           id="path44"
           style="fill:#ffffff;fill-opacity:1;fill-rule:nonzero;stroke:none" /><path
           d="m 1327.97,8.50781 0,338.72619 70.33,0 0,-129.148 131.68,0 0,129.148 70.32,0 0,-338.72619 -70.32,0 0,151.21119 -131.68,0 0,-151.21119 -70.33,0"
           inkscape:connector-curvature="0"
           id="path46"
           style="fill:#ffffff;fill-opacity:1;fill-rule:nonzero;stroke:none" /><path
           d="m 1718.88,258.988 0,-150.98 c 0,-14.2463 1.68,-24.9728 5.03,-32.1799 5.95,-12.7148 17.61,-19.0703 34.99,-19.0703 22.26,0 37.5,9.0352 45.73,27.1211 4.27,9.8047 6.4,22.7541 6.4,38.8361 l 0,136.273 66.42,0 0,-250.48019 -63.66,0 0,35.38669 c -0.61,-0.7695 -2.13,-3.0664 -4.58,-6.8906 -2.45,-3.8398 -5.35,-7.207 -8.71,-10.1172 -10.23,-9.1914 -20.12,-15.4687 -29.67,-18.85154 -9.56,-3.35547 -20.75,-5.0586 -33.58,-5.0586 -36.97,0 -61.86,13.33984 -74.71,40.00004 -7.17,14.707 -10.76,36.3789 -10.76,65.0314 l 0,150.98 67.1,0"
           inkscape:connector-curvature="0"
           id="path48"
           style="fill:#ffffff;fill-opacity:1;fill-rule:nonzero;stroke:none" /><path
           d="m 2090.83,76.3008 c 9.42,13.6328 14.14,31.5512 14.14,53.7652 0,17.778 -2.32,32.485 -6.96,44.122 -8.8,22.062 -25.02,33.085 -48.65,33.085 -23.94,0 -40.4,-10.796 -49.36,-32.402 -4.63,-11.48 -6.95,-26.348 -6.95,-44.566 0,-21.457 4.79,-39.2308 14.37,-53.3245 9.58,-14.0977 24.17,-21.1407 43.8,-21.1407 16.98,0 30.19,6.8164 39.61,20.461 z m 54.74,152.5862 c 18.74,-23.75 28.11,-54.383 28.11,-91.922 0,-38.9181 -9.24,-71.172 -27.72,-96.7502 -18.47,-25.5859 -44.28,-38.37886 -77.38,-38.37886 -20.79,0 -37.5,4.13281 -50.13,12.41016 -7.54,4.9023 -15.7,13.4805 -24.48,25.7422 l 0,-31.48049 -64.57,0 0,338.26519 65.49,0 0,-120.418 c 8.33,11.641 17.5,20.532 27.53,26.657 11.86,7.664 26.98,11.492 45.33,11.492 33.14,0 59.09,-11.871 77.82,-35.617"
           inkscape:connector-curvature="0"
           id="path50"
           style="fill:#ffffff;fill-opacity:1;fill-rule:nonzero;stroke:none" /><path
           d="m 2170.18,380.23 10.33,-80.171 c 1.2,-9.297 9.11,-16.254 18.49,-16.254 l 91.46,0 c 9.37,0 17.29,6.957 18.49,16.254 l 10.33,80.171 -74.55,43.04 -74.55,-43.04"
           inkscape:connector-curvature="0"
           id="path52"
           style="fill:#f8a30d;fill-opacity:1;fill-rule:nonzero;stroke:none" /><path
           d="m 2319.28,638.469 -10.33,80.093 c -1.2,9.293 -9.12,16.25 -18.49,16.25 l -91.47,0 c -9.37,0 -17.28,-6.957 -18.48,-16.25 l -10.33,-80.093 74.55,-43.039 74.55,43.039"
           inkscape:connector-curvature="0"
           id="path54"
           style="fill:#f8a30d;fill-opacity:1;fill-rule:nonzero;stroke:none" /><path
           d="m 2393.95,509.348 64.68,49.254 c 7.46,5.683 9.54,16.031 4.84,24.156 l -45.8,79.203 c -4.69,8.113 -14.67,11.48 -23.31,7.867 l -75.08,-31.359 0,-86.082 74.67,-43.039"
           inkscape:connector-curvature="0"
           id="path56"
           style="fill:#f79110;fill-opacity:1;fill-rule:nonzero;stroke:none" /><path
           d="m 2095.76,509.348 -64.6,-49.262 c -7.45,-5.68 -9.52,-16.012 -4.84,-24.129 l 45.65,-79.184 c 4.68,-8.128 14.68,-11.503 23.34,-7.882 l 74.87,31.339 0,86.079 -74.42,43.039"
           inkscape:connector-curvature="0"
           id="path58"
           style="fill:#f79110;fill-opacity:1;fill-rule:nonzero;stroke:none" /><path
           d="m 2319.59,552.598 0,86.078 -74.55,-43.039 74.55,-43.039"
           inkscape:connector-curvature="0"
           id="path60"
           style="fill:#fab40a;fill-opacity:1;fill-rule:nonzero;stroke:none" /><path
           d="m 2170.18,638.469 -74.84,31.336 c -8.66,3.625 -18.66,0.25 -23.34,-7.879 l -45.68,-79.192 c -4.68,-8.113 -2.61,-18.445 4.84,-24.125 l 64.57,-49.261 74.45,43.039 0,86.082"
           inkscape:connector-curvature="0"
           id="path62"
           style="fill:#fab40a;fill-opacity:1;fill-rule:nonzero;stroke:none" /><path
           d="m 2319.28,466.309 0,-86.079 75.1,-31.363 c 8.65,-3.613 18.63,-0.242 23.32,7.871 l 45.77,79.2 c 4.7,8.124 2.62,18.472 -4.84,24.156 l -64.72,49.254 -74.63,-43.039"
           inkscape:connector-curvature="0"
           id="path64"
           style="fill:#fab40a;fill-opacity:1;fill-rule:nonzero;stroke:none" /><path
           d="m 2245.04,423.477 74.55,-43.039 0,86.082 -74.55,-43.043"
           inkscape:connector-curvature="0"
           id="path66"
           style="fill:#f79110;fill-opacity:1;fill-rule:nonzero;stroke:none" /><path
           d="m 2170.49,552.598 -74.55,-43.039 74.55,-43.039 0,86.078"
           inkscape:connector-curvature="0"
           id="path68"
           style="fill:#f8a30d;fill-opacity:1;fill-rule:nonzero;stroke:none" /><path
           d="m 2170,635.211 0,-258.969 225.96,133.106 L 2170,635.211"
           inkscape:connector-curvature="0"
           id="path70"
           style="fill:#ffffff;fill-opacity:1;fill-rule:nonzero;stroke:none" /></g></g></g></g>
<g
   inkscape:groupmode="layer"
   id="layer1"
   inkscape:label="Guides"
   style="display:none"><rect
     style="fill:#0000ff;fill-rule:evenodd;stroke:#000000;stroke-width:0.50879931px;stroke-linecap:butt;stroke-linejoin:miter;stroke-opacity:1"
     id="rect4010"
     width="299.49094"
     height="299.49121"
     x="40.254402"
     y="740.25439" /><rect
     style="fill:#0000ff;fill-rule:evenodd;stroke:#000000;stroke-width:0.50879931px;stroke-linecap:butt;stroke-linejoin:miter;stroke-opacity:1"
     id="rect4010-3"
     width="299.49094"
     height="299.49121"
     x="377.44266"
     y="741.03162" /><rect
     style="fill:#0000ff;fill-rule:evenodd;stroke:#000000;stroke-width:0.50879931px;stroke-linecap:butt;stroke-linejoin:miter;stroke-opacity:1"
     id="rect4010-3-0"
     width="299.49094"
     height="299.49121"
     x="717.80402"
     y="741.03162" /><rect
     y="741.03162"
     x="717.80402"
     height="299.49121"
     width="299.49094"
     id="rect4059"
     style="fill:#0000ff;fill-rule:evenodd;stroke:#000000;stroke-width:0.50879931px;stroke-linecap:butt;stroke-linejoin:miter;stroke-opacity:1" /></g><g
   inkscape:groupmode="layer"
   id="layer2"
   inkscape:label="Logos"
   style="display:inline"><g
     style="display:inline"
     id="g3874"
     transform="matrix(0.72314208,0,0,0.72314208,177.39973,-52.861992)"><path
       id="path3039"
       d="m 664.22735,1287.889 c -23.186,-33.925 -37.789,-38.646 -54.963,-41.225 -17.174,-2.576 -52.396,23.189 -61.402,26.624 -9.021,3.438 -12.886,0.429 -26.621,-13.312 -31.79,-58.83 -89.33,-93.609 -118.96,-97.472 -29.625,-3.865 -68.705,13.737 -79.44,19.321 -12.98,-1.93 -23.839,-0.69 -32.194,1.432 -2.681,2.041 -9.282,6.282 -7.441,8.482 -0.129,-0.022 -0.308,-0.055 -0.463,-0.083 5.349,1.045 10.425,2.895 10.908,4.339 0.428,2.578 0.853,17.604 0.853,21.897 0,4.296 4.3,9.021 4.724,12.456 0,2.585 0.636,21.057 0.54,31.362 0.778,1.635 2.882,3.237 4.524,4.606 -0.285,0.07 -0.668,0.141 -1.094,0.198 0.967,-0.062 1.972,-0.255 3.002,-0.572 -0.09,-3.693 -0.459,-33.732 11.854,-36.436 7.042,-0.96 10.883,4.162 13.123,4.162 2.561,-0.321 4.481,-14.404 3.521,-16.324 -0.96,-1.92 -6.401,-6.722 -2.561,-7.041 3.841,-0.321 7.361,-4.801 11.202,-8.643 3.841,-3.841 16.324,-7.361 19.844,2.562 8.002,5.441 38.088,14.724 39.689,16.963 -5.299,3.614 -11.14,7.586 -13.707,9.333 0.072,0.083 0.178,0.183 0.234,0.26 0,0 -9.015,5.153 -16.744,8.157 -7.732,3.003 -6.439,6.443 -6.014,9.446 0.435,3.01 26.628,25.333 29.2,27.907 2.574,2.579 5.584,2.149 7.73,1.293 2.146,-0.859 -0.86,-11.164 -0.86,-11.164 0,0 -10.732,-11.596 -15.459,-17.176 3.436,-1.718 14.173,-6.442 18.895,-8.158 0.33,0 1.257,0.484 2.581,1.302 l 10.146,-6.047 c 0,0 8.594,6.653 18.822,15.444 -0.236,-0.458 -0.504,-0.927 -0.685,-1.363 0,0 37.982,22.619 47.371,46.518 3.35,14.145 2.484,40.945 9.005,54.644 5.414,7.341 11.837,14.04 14.526,18.75 5.152,9.017 13.74,25.762 15.033,32.633 1.28,6.87 4.719,35.639 2.996,41.223 -1.716,4.722 -1.285,12.023 6.877,13.312 8.157,1.291 4.717,-2.574 6.008,-5.58 1.286,-3.01 -1.291,-41.656 -0.426,-54.539 -7.307,-9.443 -9.018,-20.61 -8.163,-29.196 4.296,-10.735 6.872,-35.21 6.872,-49.379 -1.288,-13.312 -0.858,-24.046 6.012,-30.062 5.528,-4.833 17.168,8.111 27.545,13.582 1.583,0.435 10.258,2.521 17.645,-1.679 8.161,-4.642 12.002,-8.003 20.645,-7.521 8.612,0.478 25,7.949 31.767,19.244 7.17,5.936 13.909,11.854 19.194,15.025 12.883,7.727 24.906,4.722 30.917,5.151 1.72,-12.87 -8.58,-24.47 -26.61,-44.65 z m -359.26,-58.059 c 0,0 -0.002,0 -0.005,-0.01 -0.01,0 -0.018,0.01 -0.029,0.01 0,0 -0.919,-1.327 -0.795,-2.656 -0.006,-1.194 0.627,-2.422 3.037,-2.808 1.54,1.335 2.668,4.359 -2.208,5.464 z"
       inkscape:connector-curvature="0"
       style="fill:#ffbb00;fill-opacity:1" /><path
       id="path3041"
       d="m 307.18035,1224.366 c -2.41,0.386 -3.043,1.614 -3.037,2.808 -0.124,1.329 0.795,2.656 0.795,2.656 0.011,0 0.019,0 0.029,-0.01 0.002,0 0.005,0.01 0.005,0.01 4.876,-1.105 3.748,-4.129 2.208,-5.464 z"
       inkscape:connector-curvature="0"
       style="fill:none" /><path
       id="path3043"
       d="m 376.38735,1263.339 c -11.155,-10.209 -12.7,-12.532 -12.979,-14.455 l -0.108,-0.663 c -0.142,-0.896 -0.239,-1.793 -0.239,-2.682 0,-3.663 1.667,-7.213 8.577,-9.902 0.877,-0.341 1.771,-0.713 2.667,-1.102 -7.204,2.279 -15.413,6.971 -13.663,16.425 2.998,16.316 6.434,33.919 10.73,32.633 4.29,-1.289 9.444,-8.159 6.013,-15.888 -0.43,-1.43 -0.75,-2.89 -1,-4.36 z"
       inkscape:connector-curvature="0"
       style="fill:#b08100;fill-opacity:1" /><path
       id="path3045"
       d="m 504.22735,1370.639 c -1.422,-2.478 -4.238,-5.886 -7.216,-9.483 -7.546,-9.125 -16.877,-20.4 -16.877,-31.533 0,-0.39 0.01,-0.783 0.038,-1.178 0.103,-1.721 0.153,-3.486 0.153,-5.266 0,-12.96 -2.494,-26.789 -3.802,-30.627 -1.18,-1.591 -6.501,-5.539 -13.089,-10.124 5.807,8.063 11.185,18.421 11.766,29.635 1.307,25.336 5.234,65.533 15.724,82.569 1.312,6.992 1.312,27.083 -1.744,36.262 -3.063,9.173 -7.866,28.398 0.431,31.891 6.12,2.188 6.12,-0.872 7.868,-6.548 1.746,-5.682 8.742,-50.247 13.544,-59.419 -0.618,-4.744 -2.307,-12.608 -3.784,-20.734 -1.05,-1.96 -2.07,-3.8 -3.01,-5.45 z"
       inkscape:connector-curvature="0"
       style="fill:#ff3300" /><path
       id="path3047"
       d="m 481.44735,1319.479 c 0.006,0.121 0.004,0.245 0.01,0.37 v -0.08 c 0,-0.1 -0.01,-0.19 -0.01,-0.29 z"
       inkscape:connector-curvature="0"
       style="fill:#ff3300" /><path
       id="path3049"
       d="m 343.16535,1201.664 c -3.841,3.841 -7.363,8.322 -11.204,8.643 -3.841,0.319 1.601,5.121 2.562,7.041 0.959,1.92 -0.961,16.003 -3.522,16.324 -2.24,0 -6.081,-5.122 -13.123,-4.162 -13.122,2.88 -11.842,36.81 -11.842,36.81 2.421,-0.316 5.223,-1.953 7.986,-4.16 -0.056,-3.079 -0.029,-16.526 4.497,-20.486 -0.582,1.744 -2.219,12.992 -1.555,17.919 4.501,-4.244 8.461,-9.361 9.877,-11.838 2.561,-4.478 17.923,-22.082 27.845,-26.882 9.922,-3.841 32.969,10.562 32.969,10.562 0,0 8.001,-5.441 15.043,-10.242 -1.6,-2.24 -31.69,-11.522 -39.688,-16.963 -3.521,-9.923 -16.005,-6.403 -19.844,-2.562 z m 76.872,34.13 -11.096,6.614 c 7.468,8.322 53.986,37.557 62.093,42.464 -8.52,-16.21 -50.99,-49.075 -50.99,-49.075 z m -115.2,-8.424 c -0.78,0.668 0.11,1.225 0.11,1.225 0.502,-0.334 0.669,-1.893 -0.11,-1.225 z"
       inkscape:connector-curvature="0"
       style="fill:#ffffff" /><path
       id="path3051"
       d="m 683.85735,1303.869 c 0,0 -1.892,-2.348 -1.893,-2.348 l -4.916,-6.527 c -14.47,-19.451 -41.404,-55.657 -69.608,-50.931 -3.038,0.509 -6.812,1.685 -11.534,3.594 l 0.557,1.544 c 5.167,-1.635 9.445,-2.215 12.716,-1.725 16.714,2.51 31.332,7.113 54.407,40.876 l 0.029,0.044 0.035,0.04 c 16.303,18.251 26.593,29.77 26.593,41.398 0,0.621 -0.066,1.244 -0.125,1.866 -1.233,-0.032 -2.626,0.022 -4.218,0.098 -6.651,0.313 -15.757,0.742 -25.511,-5.107 -4.264,-2.558 -9.577,-7.004 -15.203,-11.71 0,0 -3.648,-3.042 -3.807,-3.174 -2.371,-3.899 -6.075,-7.678 -10.748,-10.937 -6.895,-4.831 -15.616,-8.307 -21.7,-8.646 -7.499,-0.417 -11.462,1.938 -17.461,5.501 l -3.636,2.127 c -7.022,3.993 -15.228,2.088 -16.974,1.611 -3.299,-1.772 -6.745,-4.303 -10.081,-6.755 -7.174,-5.274 -13.949,-10.256 -18.149,-6.583 -5.356,4.69 -6.866,12.193 -6.866,20.502 0,3.332 0.242,6.794 0.578,10.256 -0.005,15.08 -2.803,38.962 -6.818,48.994 l -0.043,0.108 -0.011,0.115 c -0.104,1.041 -0.194,2.42 -0.194,4.055 0,6.256 1.344,16.259 8.34,25.458 -0.117,1.889 -0.167,4.286 -0.167,7.034 0,6.63 0.277,15.205 0.529,23.05 0.214,6.607 0.444,13.767 0.444,18.534 0,2.854 -0.082,4.853 -0.302,5.364 -0.34,0.795 -0.403,1.604 -0.403,2.358 0,0.233 0.006,0.461 0.011,0.683 0.007,0.208 0.009,0.399 0.009,0.576 0,0.65 -0.057,1.084 -0.331,1.323 -0.372,0.328 -1.44,0.62 -4.408,0.15 -2.785,-0.439 -4.774,-1.643 -5.914,-3.575 -1.579,-2.677 -1.2,-6.221 -0.319,-8.644 1.838,-5.956 -1.77,-35.26 -2.96,-41.655 -1.313,-6.966 -9.976,-23.871 -15.128,-32.889 -1.584,-2.772 -4.34,-6.108 -7.531,-9.971 -2.014,-2.436 -4.095,-4.955 -6.107,-7.603 0,0 -0.76,0.487 -1.108,0.711 -4.614,-5.506 -10.947,-17.769 -10.947,-30.939 0,-0.919 0.031,-1.845 0.095,-2.771 0.02,-0.789 0.028,-1.568 0.028,-2.336 0,-16.549 -4.177,-27.956 -8.5,-30.838 l -3.509,-2.581 c 0,0 -0.179,0.156 -0.276,0.241 -7.596,-4.644 -49.575,-30.961 -60.082,-40.699 l -0.083,-0.077 c 0,0 -0.626,-0.32 -0.69,-0.353 -0.107,-0.114 -1.219,-1.295 -1.219,-1.295 l -0.112,-0.072 c -1.668,-0.995 -2.134,-1.078 -2.441,-1.078 h -0.144 l -0.136,0.049 c -4.804,1.746 -15.498,6.453 -18.981,8.195 l -0.935,0.467 0.676,0.798 c 4.393,5.188 14.072,15.678 15.343,17.053 0.973,3.385 1.566,6.784 1.566,8.635 0,0.725 -0.09,1.211 -0.283,1.367 -2.708,1.079 -5.01,0.705 -6.83,-1.117 -0.665,-0.665 -2.762,-2.522 -5.664,-5.093 -6.823,-6.045 -22.801,-20.199 -23.308,-22.362 0,-10e-4 -0.116,-0.75 -0.116,-0.75 -0.112,-0.681 -0.222,-1.353 -0.222,-2.016 0,-1.986 0.982,-3.901 5.838,-5.788 5.613,-2.182 11.832,-5.448 15.039,-7.201 l 0.989,-0.541 c 0,0 -1.48,-1.403 -1.49,-1.412 -10e-4,0 -0.194,-0.208 -0.194,-0.208 l -0.098,-0.059 c -5.449,-3.271 -23.932,-13.673 -32.956,-10.18 -10.288,4.975 -25.67,22.71 -28.262,27.245 -1.156,2.022 -4.447,6.393 -8.475,10.419 -0.012,-0.341 -0.025,-0.679 -0.025,-1.048 0,-5.436 1.243,-13.503 1.67,-14.786 l 0.957,-2.87 -2.275,1.992 c -4.296,3.759 -4.788,14.972 -4.788,19.884 0,0.311 0.004,0.552 0.006,0.809 -2.434,1.904 -4.564,3.073 -6.374,3.537 -0.005,-0.142 -0.011,-0.329 -0.011,-0.329 l -1.012,0.287 c -0.39,0.112 -0.75,0.133 -1.13,0.205 -0.151,-0.125 -0.302,-0.251 -0.302,-0.251 -1.41,-1.16 -2.981,-2.469 -3.635,-3.713 0.005,-0.651 0.009,-1.324 0.009,-2.033 0,-7.172 -0.255,-17.015 -0.415,-23.141 l -0.136,-6 -0.005,-0.059 c -0.204,-1.661 -1.173,-3.484 -2.2,-5.415 -1.238,-2.329 -2.518,-4.737 -2.518,-6.941 0,-4.454 -0.43,-19.414 -0.864,-22.031 l -0.01,-0.064 -0.021,-0.061 c -0.788,-2.361 -7.961,-4.119 -10.622,-4.695 -0.021,-0.055 -0.063,-0.103 -0.063,-0.168 0,-0.031 0.002,-0.062 0.006,-0.096 0.196,-1.587 4.051,-4.394 6.123,-5.901 0,0 0.958,-0.706 1.174,-0.866 10.083,-2.533 20.738,-2.999 31.674,-1.373 l 0.264,0.039 0.236,-0.123 c 1.277,-0.664 4.021,-2.047 8.047,-3.856 l -0.593,-1.529 c -2.168,0.713 -4.107,1.279 -5.932,1.736 -0.236,-0.01 -21.467,-0.614 -21.467,-0.614 l -0.078,0.013 c -8.092,1.332 -14.355,3.725 -19.414,5.891 -1.904,0.702 -3.959,1.615 -6.07,2.696 0.033,-0.016 -7.26,3.138 -7.26,3.138 l -0.885,0.383 0.498,0.82 c 1.108,1.739 6.365,2.939 15.679,4.546 1.492,0.257 2.773,0.48 3.506,0.644 1.923,3.495 2.125,8.109 2.322,12.996 0.146,3.608 0.298,7.338 1.12,11.049 l 0.015,0.065 c 0,0 4.781,11.949 4.884,12.205 v 29.979 c 0.333,0.867 1.718,3.889 5.177,5.445 4.968,-0.689 9.584,-2.713 14.007,-6.138 0.041,-0.024 1.274,-0.766 1.274,-0.766 0,0 -0.036,-0.13 -0.067,-0.241 5.657,-4.745 10.319,-11.152 14.815,-17.379 8.503,-11.776 16.535,-22.898 30.01,-20.693 5.173,0.847 9.602,3.218 13.884,5.51 1.349,0.722 2.733,1.438 4.129,2.123 -2.908,0.619 -5.718,1.376 -8.296,2.376 -1.041,0.358 -2.068,0.796 -3.11,1.328 0,10e-4 -2.369,1.239 -2.369,1.239 l -0.075,0.159 c 0,0 -0.036,0.056 -0.072,0.112 -2.201,1.556 -3.96,3.526 -5.224,5.866 l -10e-4,0 c -0.015,0.027 -0.033,0.05 -0.047,0.077 0,0 0.719,0.436 1.094,0.664 -0.316,0.974 -0.488,2.013 -0.488,3.138 0,0.836 0.082,1.756 0.25,2.811 0,0 0.107,0.666 0.107,0.666 0.332,2.273 2.233,4.847 13.038,14.745 0.261,1.512 0.574,2.891 0.965,4.184 l 0.015,0.049 0.021,0.046 c 0.769,1.73 1.056,3.338 1.056,4.774 0,1.865 -0.484,3.441 -1.026,4.624 -1.201,2.613 -3.371,4.723 -5.528,5.37 -0.149,0.045 -0.363,0.071 -0.682,-0.124 -3.546,-2.17 -6.963,-20.763 -9.004,-31.872 -0.184,-0.994 -0.252,-1.976 -0.206,-2.917 l -1.628,-0.186 c -1.85,10.292 2.597,23.496 6.169,34.104 l 0.821,2.445 5.068,1.448 0.309,-0.193 c 4.891,-3.054 9.866,-6.854 9.866,-13.831 0,-1.12 -0.185,-2.357 -0.462,-3.651 1.732,1.128 3.447,2.672 5.238,4.295 4.644,4.208 9.907,8.978 17.083,7.14 l 0.075,-0.019 0.069,-0.032 c 3.036,-1.417 3.996,-3.173 5.312,-5.92 l 0.097,-0.202 -0.02,-0.224 c -0.795,-9.054 -5.983,-14.056 -10.999,-18.894 -1.877,-1.81 -3.63,-3.555 -5.201,-5.476 2.889,-2.049 7.456,-4.239 13.865,-4.236 3.749,2.843 7.419,5.979 10.969,9.019 5.764,4.936 11.723,10.041 18.381,14.209 0.029,0.018 25.38,14.504 25.682,14.677 8.435,11.017 9.993,28.96 11.636,47.959 0.918,10.604 1.868,21.57 4.104,31.487 2.783,12.338 7.126,23.431 10.958,33.217 l 0.754,1.93 c 0.835,2.136 1.178,4.771 1.178,7.743 0,7.076 -1.943,16.074 -3.844,24.862 -1.858,8.602 -3.661,16.942 -3.661,23.413 0,5.447 1.278,9.569 4.878,11.4 l 0.141,0.071 7.328,0.667 0.275,-0.309 c 8.178,-9.152 17.598,-59.015 17.598,-77.842 0,-0.071 -0.004,-0.127 -0.004,-0.196 0.768,2.181 1.551,4.33 2.326,6.413 4.17,11.189 8.109,21.758 8.144,38.507 l -0.167,6.142 c -0.088,2.158 -0.179,4.389 -0.179,6.568 0,6.601 0.829,12.744 5.077,15.051 2.704,1.288 7.113,0.697 9.404,-0.626 5.166,-2.755 6.637,-10.741 6.637,-20.144 0,-6.799 -0.768,-14.336 -1.466,-21.173 -0.548,-5.382 -1.066,-10.466 -1.071,-14.09 -0.012,-8.142 -2.178,-12.399 -4.273,-16.519 -1.447,-2.842 -2.941,-5.778 -3.729,-10.053 -0.437,-2.364 -0.624,-4.659 -0.624,-6.899 0,-7.148 1.914,-13.725 3.78,-20.137 1.142,-3.924 2.322,-7.983 2.991,-12.012 0.902,-5.447 1.097,-11.138 1.097,-16.793 0,-2.126 -0.026,-4.246 -0.054,-6.348 -0.027,-2.069 -0.054,-4.111 -0.054,-6.112 0,-5.961 0.245,-11.549 1.396,-16.444 6.638,-4.088 12.778,0.999 19.271,6.4 4.178,3.475 8.497,7.068 13.008,8.01 7.973,1.667 13.364,-1.696 18.577,-4.95 5.503,-3.434 10.7,-6.677 18.849,-4.283 11.465,3.369 19.68,10.619 27.621,17.633 12.73,11.24 25.894,22.862 52.607,19.267 l 0.443,-0.061 0.19,-0.406 c 1.19,-2.54 1.692,-5.059 1.692,-7.516 -0.04,-8.94 -6.66,-17.04 -10.99,-22.34 z m -379.24,-73.115 0.541,-0.123 c 2.915,-0.66 3.827,-1.996 4.079,-3 0.391,-1.56 -0.571,-3.068 -1.514,-3.886 l -0.29,-0.25 -0.378,0.061 c -3.205,0.513 -3.724,2.443 -3.724,3.637 0,0.176 0.013,0.331 0.029,0.468 0.086,1.38 0.907,2.586 0.942,2.636 l 0.315,0.457 z m 97.604,-67.432 c 15.888,2.071 37.675,12.525 58.279,27.966 17.424,13.056 41.986,35.639 60.05,69.079 l 0.057,0.105 0.086,0.085 c 13.472,13.477 17.787,17.197 27.495,13.5 2.572,-0.981 7.078,-3.649 12.784,-7.027 l 8.452,-4.95 -0.775,-1.447 c -11.647,5.795 -23.388,11.332 -27.805,9.884 -12.21,-4.001 -19.445,-16.648 -26.442,-28.879 -2.75,-4.807 -5.348,-9.347 -8.181,-13.229 l -0.028,-0.041 -26.501,-28.347 -0.889,-0.715 c -18.36,-14.716 -39.14,-31.419 -65.85,-38.173 -23.897,-6.043 -43.605,0.659 -61.744,8.043 l 0.57,1.539 c 13.692,-4.579 33.564,-9.576 50.424,-7.375 z m -98.859,64.377 c -0.002,-0.011 -0.002,-0.027 -0.002,-0.038 -10e-4,0 -0.002,-0.01 -0.002,-0.013 l 0.004,0.051 z"
       inkscape:connector-curvature="0" /><ellipse
       transform="translate(269.09735,1158.769)"
       id="ellipse3053"
       ry="1.025"
       rx="0.81"
       cx="35.855999"
       cy="69.431"
       sodipodi:cx="35.855999"
       sodipodi:cy="69.431"
       sodipodi:rx="0.81"
       sodipodi:ry="1.025"
       style="fill:#ffffff"
       d="m 36.665999,69.431 c 0,0.566092 -0.362649,1.025 -0.81,1.025 -0.447351,0 -0.81,-0.458908 -0.81,-1.025 0,-0.566092 0.362649,-1.025 0.81,-1.025 0.447351,0 0.81,0.458908 0.81,1.025 z" /><path
       id="path3055"
       d="m 384.58735,1230.457 c 2.737,-1.095 18.337,-11.222 27.096,-12.864 -7.39,3.284 -24.906,15.054 -24.906,15.054 l -2.19,-2.19 z"
       inkscape:connector-curvature="0" /><path
       id="path3057"
       d="m 380.20735,1230.731 c 0,0 21.349,-13.958 39.413,-15.053 -7.938,3.832 -30.928,16.969 -36.676,18.885 -3.832,0.547 -1.369,-2.19 -1.369,-2.19 l -1.36,-1.642 z"
       inkscape:connector-curvature="0" /><polygon
       transform="translate(269.09735,1158.769)"
       id="polygon3059"
       points="136.02,84.142 134.79,82.363 144.78,78.394 138.48,84.962 " /><polygon
       transform="translate(269.09735,1158.769)"
       id="polygon3061"
       points="152.17,75.657 139.58,83.868 135.61,82.226 " /><path
       id="path3063"
       d="m 473.26735,1300.109 c 0,0 2.874,23.812 2.874,41.877 2.874,15.601 18.064,39.412 17.654,57.887 -0.411,18.476 -9.033,52.961 -6.159,57.478 2.874,4.516 6.979,6.158 8.212,4.105 1.23,-2.053 13.137,-45.16 13.137,-56.245 0,-11.085 -3.695,-25.454 -10.674,-36.539 -6.979,-11.085 -16.976,-32.017 -18.136,-40.231 -1.15,-8.23 -5.26,-25.88 -6.9,-28.35 z"
       inkscape:connector-curvature="0"
       style="fill:#b08100;fill-opacity:1" /><path
       id="path3065"
       d="m 473.36735,1300.949 c 0.499,4.323 2.777,24.957 2.777,41.046 0.964,5.237 3.32,11.402 6.004,17.978 -1.413,-6.208 -0.086,-13.786 -4.773,-38.3 -1.4,-9.87 -2.77,-16.41 -4.01,-20.73 z"
       inkscape:connector-curvature="0"
       style="fill:#e6e6e6" /><path
       id="path3067"
       d="m 648.04735,1267.259 c -14.586,-15.551 -25.971,-18.675 -38.784,-20.599 -17.174,-2.576 -52.396,23.189 -61.402,26.624 -2.99,1.139 -5.411,1.564 -7.813,1.133 0.088,0.668 0.142,1.06 0.142,1.06 0,0 25.864,-1.642 40.233,-9.442 14.369,-7.8 50.087,-10.264 67.74,2.873 -0.04,-0.53 -0.08,-1.08 -0.12,-1.65 z m -325.2,-85.431 c -12.98,-1.93 -23.839,-0.69 -32.194,1.432 -2.225,1.693 -7.144,4.9 -7.705,7.201 0.57,0.372 0.898,0.583 0.898,0.583 0,0 18.217,-7.937 40.387,-8.758 -0.208,-0.29 -0.421,-0.56 -0.632,-0.845 -0.258,0.132 -0.522,0.266 -0.754,0.387 z m 79.437,-19.321 c -16.146,-2.106 -35.092,2.166 -50.736,7.392 0.146,0.508 0.235,0.798 0.235,0.798 3.239,0.093 84.528,-8.118 142.83,53.465 -0.029,-0.82 -0.078,-1.64 -0.139,-2.461 -31.17,-35.522 -69.71,-56.264 -92.19,-59.194 z"
       inkscape:connector-curvature="0"
       style="opacity:0.1;fill:#ffffff" /></g></g><g
   inkscape:groupmode="layer"
   id="layer3"
   inkscape:label="Text"
   style="display:inline">





<text
   xml:space="preserve"
   style="font-size:200px;font-style:normal;font-variant:normal;font-weight:normal;font-stretch:normal;line-height:125%;letter-spacing:0px;word-spacing:0px;fill:#ffffff;fill-opacity:1;stroke:none;display:inline;font-family:ChunkFive Ex;-inkscape-font-specification:ChunkFive Ex"
   x="129.33867"
   y="500.66895"
   id="text3929-0-1"
   sodipodi:linespacing="125%"
   inkscape:export-filename="C:\Users\samkristoff\Desktop\Icons\Thumbnail\Sparkfun Inventor's Kit for LabVIEW\13 - DC Motor.png"
   inkscape:export-xdpi="90"
   inkscape:export-ydpi="90"><tspan
     sodipodi:role="line"
     x="129.33867"
     y="500.66895"
     style="font-size:150px;font-style:normal;font-variant:normal;font-weight:bold;font-stretch:normal;line-height:125%;fill:#ffffff;fill-opacity:1;font-family:Segoe UI;-inkscape-font-specification:Segoe UI Bold"
     id="tspan3968-1-7">Leap Motion</tspan><tspan
     sodipodi:role="line"
     x="129.33867"
     y="688.16895"
     style="font-size:150px;font-style:normal;font-variant:normal;font-weight:bold;font-stretch:normal;line-height:125%;fill:#ffffff;fill-opacity:1;font-family:Segoe UI;-inkscape-font-specification:Segoe UI Bold"
     id="tspan3034">Controller</tspan><tspan
     sodipodi:role="line"
     x="129.33867"
     y="875.66895"
     style="font-size:150px;font-style:normal;font-variant:normal;font-weight:bold;font-stretch:normal;line-height:125%;fill:#ffffff;fill-opacity:1;font-family:Segoe UI;-inkscape-font-specification:Segoe UI Bold"
     id="tspan3966-8-4" /></text>
</g><g
   id="g4786"
   transform="matrix(0.86324418,0,0,0.86324418,1184.5205,168.8273)"
   style="fill:#ffffff"><g
     id="g4746"
     style="fill:#ffffff"><path
       id="path4748"
       d="M 1.659,484.737 1.001,206.595 c -0.032,-13.686 13.95,-22.938 26.534,-17.559 l 253.206,108.241 c 6.997,2.991 11.542,9.859 11.56,17.468 l 0.658,278.142 c 0.032,13.687 -13.95,22.939 -26.534,17.56 L 13.219,502.206 C 6.222,499.215 1.676,492.347 1.659,484.737 z M 581.805,219.687 348.142,320.883 348.75,578.289 582.414,477.093 581.805,219.687 m 9.455,-33.556 c 10.043,-0.025 19.056,8.054 19.081,19.022 l 0.658,278.142 c 0.018,7.609 -4.495,14.5 -11.478,17.523 l -252.69,109.438 c -2.493,1.079 -5.047,1.583 -7.534,1.59 -10.044,0.023 -19.058,-8.055 -19.083,-19.022 l -0.658,-278.143 c -0.019,-7.609 4.495,-14.5 11.479,-17.523 l 252.69,-109.437 c 2.493,-1.081 5.046,-1.584 7.535,-1.59 l 0,0 z M 304.152,29.466 61.767,137.691 304.661,244.766 547.047,136.542 304.152,29.466 M 304.083,0 c 2.632,-0.006 5.266,0.533 7.728,1.618 l 266.403,117.439 c 15.112,6.663 15.163,28.088 0.082,34.821 L 312.451,272.577 c -2.456,1.097 -5.088,1.648 -7.721,1.655 -2.632,0.006 -5.266,-0.533 -7.728,-1.618 L 30.6,155.175 C 15.487,148.513 15.437,127.087 30.517,120.354 L 296.361,1.655 C 298.818,0.558 301.449,0.006 304.083,0 l 0,0 z"
       inkscape:connector-curvature="0"
       style="fill:#ffffff" /></g><g
     id="g4750"
     style="fill:#ffffff" /><g
     id="g4752"
     style="fill:#ffffff" /><g
     id="g4754"
     style="fill:#ffffff" /><g
     id="g4756"
     style="fill:#ffffff" /><g
     id="g4758"
     style="fill:#ffffff" /><g
     id="g4760"
     style="fill:#ffffff" /><g
     id="g4762"
     style="fill:#ffffff" /><g
     id="g4764"
     style="fill:#ffffff" /><g
     id="g4766"
     style="fill:#ffffff" /><g
     id="g4768"
     style="fill:#ffffff" /><g
     id="g4770"
     style="fill:#ffffff" /><g
     id="g4772"
     style="fill:#ffffff" /><g
     id="g4774"
     style="fill:#ffffff" /><g
     id="g4776"
     style="fill:#ffffff" /><g
     id="g4778"
     style="fill:#ffffff" /></g></svg>