<?xml version="1.0" encoding="UTF-8" standalone="no"?>
<!-- Created with Inkscape (http://www.inkscape.org/) -->

<svg
   xmlns:dc="http://purl.org/dc/elements/1.1/"
   xmlns:cc="http://creativecommons.org/ns#"
   xmlns:rdf="http://www.w3.org/1999/02/22-rdf-syntax-ns#"
   xmlns:svg="http://www.w3.org/2000/svg"
   xmlns="http://www.w3.org/2000/svg"
   xmlns:sodipodi="http://sodipodi.sourceforge.net/DTD/sodipodi-0.dtd"
   xmlns:inkscape="http://www.inkscape.org/namespaces/inkscape"
   version="1.1"
   width="800"
   height="600"
   id="svg2"
   xml:space="preserve"
   inkscape:version="0.91 r13725"
   sodipodi:docname="04 - Data Types.svg"
   inkscape:export-filename="C:\cygwin64\home\Sam\git\makerhub\Website\Media\Images\Tutorials\LabVIEW\Basics\export\4-3\03 - Data Types.png"
   inkscape:export-xdpi="90"
   inkscape:export-ydpi="90"><sodipodi:namedview
     pagecolor="#919191"
     bordercolor="#666666"
     borderopacity="1"
     objecttolerance="10"
     gridtolerance="10"
     guidetolerance="10"
     inkscape:pageopacity="1"
     inkscape:pageshadow="2"
     inkscape:window-width="1920"
     inkscape:window-height="1017"
     id="namedview3019"
     showgrid="false"
     inkscape:zoom="0.64"
     inkscape:cx="9.66308"
     inkscape:cy="394.36404"
     inkscape:window-x="1912"
     inkscape:window-y="-8"
     inkscape:window-maximized="1"
     inkscape:current-layer="layer3"
     showguides="true"
     inkscape:guide-bbox="true"><sodipodi:guide
       orientation="0,1"
       position="0,525"
       id="guide4316"
       inkscape:label=""
       inkscape:color="rgb(0,0,255)" /><sodipodi:guide
       orientation="1,0"
       position="75,844.38116"
       id="guide3048"
       inkscape:label=""
       inkscape:color="rgb(0,0,255)" /><sodipodi:guide
       position="368.31161,407.15697"
       orientation="1,0"
       id="guide4222" /></sodipodi:namedview><metadata
     id="metadata8"><rdf:RDF><cc:Work
         rdf:about=""><dc:format>image/svg+xml</dc:format><dc:type
           rdf:resource="http://purl.org/dc/dcmitype/StillImage" /><dc:title /></cc:Work></rdf:RDF></metadata><defs
     id="defs6"><linearGradient
       id="linearGradient4153"><stop
         style="stop-color:#828282;stop-opacity:1;"
         offset="0"
         id="stop4155" /><stop
         style="stop-color:#919191;stop-opacity:1;"
         offset="1"
         id="stop4157" /></linearGradient><clipPath
       id="clipPath18"><path
         d="M 0,734.812 0,0 l 2465.98,0 0,734.812 -2465.98,0 z"
         inkscape:connector-curvature="0"
         id="path20" /></clipPath></defs><g
     id="g3899"
     transform="matrix(1.2165572,0,0,-1.2165572,477.75613,571.36258)"><g
       transform="scale(0.1,0.1)"
       id="g12"><g
         id="g14"><g
           clip-path="url(#clipPath18)"
           id="g16"><path
             d="m 0,393.57 0,184.832 17.457,0 0,-169.945 99.09,0 0,-14.887 -116.547,0"
             inkscape:connector-curvature="0"
             id="path22"
             style="fill:#fab40a;fill-opacity:1;fill-rule:nonzero;stroke:none" /><path
             d="m 222.309,463.395 c -6.504,-2.743 -13.09,-4.54 -19.766,-5.391 -6.676,-0.856 -13.348,-1.539 -20.023,-2.051 -11.805,-0.859 -21.012,-3.512 -27.598,-7.961 -6.586,-4.453 -9.883,-11.211 -9.883,-20.281 0,-4.109 0.813,-7.66 2.441,-10.652 1.622,-2.997 3.758,-5.481 6.415,-7.446 2.652,-1.968 5.734,-3.425 9.246,-4.363 3.504,-0.941 7.058,-1.41 10.652,-1.41 6.156,0 12.148,0.769 17.969,2.308 5.816,1.543 10.996,3.891 15.535,7.059 4.527,3.164 8.168,7.188 10.906,12.066 2.735,4.879 4.106,10.657 4.106,17.329 l 0,20.793 z m -25.926,7.703 c 2.91,0.336 6.375,0.855 10.398,1.539 4.02,0.683 7.317,1.625 9.883,2.824 2.566,1.195 4.148,3.211 4.746,6.031 0.602,2.824 0.899,5.434 0.899,7.828 0,7.871 -2.524,14.336 -7.575,19.387 -5.046,5.043 -13.562,7.57 -25.539,7.57 -5.308,0 -10.187,-0.472 -14.633,-1.41 -4.449,-0.941 -8.339,-2.566 -11.679,-4.879 -3.336,-2.308 -6.074,-5.386 -8.215,-9.242 -2.145,-3.851 -3.555,-8.687 -4.238,-14.5 l -15.66,0 c 0.511,7.863 2.308,14.582 5.39,20.149 3.082,5.558 7.063,10.093 11.942,13.605 4.875,3.508 10.527,6.074 16.941,7.699 6.418,1.625 13.223,2.442 20.41,2.442 6.676,0 12.965,-0.731 18.867,-2.18 5.903,-1.457 11.039,-3.766 15.403,-6.938 4.363,-3.168 7.785,-7.402 10.265,-12.703 2.481,-5.308 3.727,-11.804 3.727,-19.511 l 0,-72.395 c 0,-5.988 1.062,-9.797 3.207,-11.418 2.14,-1.633 6.461,-1.246 12.965,1.152 l 0,-12.066 c -1.199,-0.344 -2.953,-0.855 -5.266,-1.539 -2.309,-0.684 -4.578,-1.027 -6.801,-1.027 -2.394,0 -4.707,0.257 -6.933,0.769 -2.563,0.348 -4.617,1.156 -6.157,2.442 -1.542,1.281 -2.785,2.824 -3.726,4.621 -0.942,1.797 -1.582,3.757 -1.922,5.902 -0.348,2.137 -0.516,4.402 -0.516,6.801 -6.507,-7.188 -13.949,-12.664 -22.332,-16.426 -8.386,-3.766 -17.457,-5.648 -27.211,-5.648 -5.82,0 -11.425,0.769 -16.816,2.308 -5.391,1.543 -10.137,3.938 -14.25,7.188 -4.105,3.254 -7.355,7.23 -9.754,11.937 -2.398,4.707 -3.594,10.309 -3.594,16.817 0,22.589 15.489,35.937 46.469,40.043 l 21.305,2.828"
             inkscape:connector-curvature="0"
             id="path24"
             style="fill:#fab40a;fill-opacity:1;fill-rule:nonzero;stroke:none" /><path
             d="m 290.082,460.57 c 0,-8.047 0.98,-15.531 2.953,-22.461 1.965,-6.933 4.832,-12.925 8.602,-17.968 3.758,-5.051 8.468,-9.032 14.117,-11.938 5.648,-2.914 12.062,-4.363 19.258,-4.363 6.496,0 12.488,1.156 17.968,3.465 5.473,2.308 10.266,5.687 14.375,10.136 4.106,4.45 7.313,9.887 9.625,16.305 2.313,6.414 3.465,13.816 3.465,22.207 0.34,8.383 -0.343,16.211 -2.05,23.485 -1.715,7.277 -4.454,13.648 -8.219,19.124 -3.766,5.477 -8.598,9.797 -14.5,12.965 -5.906,3.164 -12.801,4.75 -20.664,4.75 -7.024,0 -13.313,-1.496 -18.875,-4.492 -5.563,-2.996 -10.27,-7.019 -14.117,-12.062 -3.852,-5.055 -6.805,-10.957 -8.856,-17.715 -2.055,-6.766 -3.082,-13.906 -3.082,-21.438 z m 0,-67 -15.402,0 0,184.832 15.402,0 0,-73.164 c 4.961,8.215 11.766,14.418 20.41,18.614 8.641,4.191 17.668,6.289 27.082,6.289 10.098,0 18.871,-1.922 26.313,-5.778 7.445,-3.851 13.609,-8.98 18.484,-15.402 4.879,-6.418 8.512,-13.906 10.91,-22.461 2.395,-8.562 3.594,-17.457 3.594,-26.699 0,-9.758 -1.113,-18.91 -3.336,-27.465 -2.227,-8.563 -5.773,-15.965 -10.652,-22.207 -4.879,-6.25 -11.086,-11.168 -18.614,-14.762 -7.535,-3.594 -16.683,-5.39 -27.464,-5.39 -4.286,0 -8.649,0.597 -13.098,1.796 -4.453,1.2 -8.77,2.911 -12.965,5.129 -4.191,2.231 -8.047,5.012 -11.551,8.348 -3.507,3.34 -6.379,7.227 -8.597,11.68 l -0.516,0 0,-23.36"
             inkscape:connector-curvature="0"
             id="path26"
             style="fill:#fab40a;fill-opacity:1;fill-rule:nonzero;stroke:none" /><path
             d="m 410.738,578.402 18.227,0 55.707,-164.297 55.449,164.297 18.231,0 -64.18,-184.832 -19.254,0 -64.18,184.832"
             inkscape:connector-curvature="0"
             id="path28"
             style="fill:#fab40a;fill-opacity:1;fill-rule:nonzero;stroke:none" /><path
             d="m 584.785,393.57 17.457,0 0,184.832 -17.457,0 0,-184.832 z"
             inkscape:connector-curvature="0"
             id="path30"
             style="fill:#fab40a;fill-opacity:1;fill-rule:nonzero;stroke:none" /><path
             d="m 644.859,393.57 0,184.832 122.961,0 0,-14.886 -105.508,0 0,-66.746 95.243,0 0,-14.891 -95.243,0 0,-73.422 108.079,0 0,-14.887 -125.532,0"
             inkscape:connector-curvature="0"
             id="path32"
             style="fill:#fab40a;fill-opacity:1;fill-rule:nonzero;stroke:none" /><path
             d="m 941.617,418.215 0.516,0 40.305,160.187 17.972,0 -48.523,-184.832 -19.254,0 -42.871,163.27 -0.516,0 -42.867,-163.27 -19.254,0 -47.75,184.832 17.457,0 39.789,-160.187 0.512,0 42.871,160.187 19.512,0 42.101,-160.187"
             inkscape:connector-curvature="0"
             id="path34"
             style="fill:#fab40a;fill-opacity:1;fill-rule:nonzero;stroke:none" /><path
             d="m 239.762,347.234 101.843,0 0,-338.72619 -65.953,0 0,229.10919 c 0,6.586 0.075,15.817 0.231,27.692 0.152,11.871 0.23,21.031 0.23,27.461 L 211.926,8.50781 l -68.797,0 L 79.3984,292.77 c 0,-6.43 0.0743,-15.59 0.2305,-27.461 0.1523,-11.875 0.2305,-21.106 0.2305,-27.692 l 0,-229.10919 -65.9532,0 0,338.72619 102.9918,0 61.661,-266.3434 61.203,266.3434"
             inkscape:connector-curvature="0"
             id="path36"
             style="fill:#ffffff;fill-opacity:1;fill-rule:nonzero;stroke:none" /><path
             d="m 531.664,130.305 c -4.191,-2.621 -8.426,-4.719 -12.699,-6.328 -4.274,-1.606 -10.133,-3.11 -17.582,-4.473 l -14.914,-2.766 c -13.973,-2.453 -24.008,-5.437 -30.102,-8.957 -10.316,-5.972 -15.472,-15.2537 -15.472,-27.8083 0,-11.1954 3.148,-19.2696 9.453,-24.2422 6.293,-4.9766 13.961,-7.4766 22.98,-7.4766 14.313,0 27.496,4.1406 39.555,12.4219 12.055,8.2578 18.312,23.3554 18.781,45.2622 l 0,24.367 z m -40.047,30.562 c 12.192,1.528 20.906,3.442 26.156,5.742 9.415,3.989 14.122,10.176 14.122,18.618 0,10.25 -3.61,17.339 -10.833,21.25 -7.218,3.906 -17.82,5.859 -31.792,5.859 -15.684,0 -26.793,-3.828 -33.313,-11.484 -4.664,-5.668 -7.769,-13.332 -9.316,-22.993 l -63.2,0 c 1.383,21.914 7.539,39.914 18.461,54.004 17.391,22.071 47.239,33.102 89.559,33.102 27.539,0 52,-5.438 73.394,-16.317 21.383,-10.882 32.079,-31.414 32.079,-61.589 l 0,-114.9028 c 0,-7.9687 0.152,-17.6132 0.461,-28.9531 0.457,-8.5859 1.753,-14.4023 3.906,-17.4726 2.14,-3.0625 5.359,-5.586 9.652,-7.5782 l 0,-9.64449 -71.242,0 c -1.992,5.04689 -3.371,9.80079 -4.137,14.23439 -0.769,4.4531 -1.379,9.5039 -1.84,15.1797 C 524.645,28.1133 514.16,19.7578 502.301,12.8594 488.121,4.75781 472.094,0.691406 454.219,0.691406 c -22.809,0 -41.645,6.464844 -56.516,19.414094 -14.871,12.9531 -22.305,31.289 -22.305,55.039 0,30.7935 11.961,53.0855 35.879,66.8755 13.121,7.5 32.418,12.875 57.883,16.085 l 22.457,2.762"
             inkscape:connector-curvature="0"
             id="path38"
             style="fill:#ffffff;fill-opacity:1;fill-rule:nonzero;stroke:none" /><path
             d="m 644.047,346.082 64.348,0 0,-182.73 82.605,94.492 81.445,0 -89.777,-93.324 93.254,-156.01219 -79.711,0 -60.688,107.01219 -27.128,-28.1958 0,-78.81639 -64.348,0 0,337.57419"
             inkscape:connector-curvature="0"
             id="path40"
             style="fill:#ffffff;fill-opacity:1;fill-rule:nonzero;stroke:none" /><path
             d="m 962.32,197.336 c -9.258,-9.531 -15.07,-22.465 -17.449,-38.774 l 112.839,0 c -1.2,17.383 -7.01,30.579 -17.45,39.583 -10.44,9.003 -23.39,13.503 -38.84,13.503 -16.815,0 -29.85,-4.773 -39.1,-14.312 z m 97.98,56.578 c 17.47,-7.824 31.9,-20.176 43.28,-37.051 10.26,-14.883 16.92,-32.144 19.96,-51.797 1.77,-11.504 2.49,-28.074 2.16,-49.707 l -182.438,0 c 1.019,-25.1246 9.75,-42.7418 26.195,-52.8473 10.008,-6.289 22.043,-9.4375 36.113,-9.4375 14.92,0 27.04,3.8281 36.37,11.5039 5.08,4.1328 9.58,9.875 13.48,17.2305 l 66.86,0 C 1120.52,66.9414 1112.43,51.8555 1098,36.5312 1075.56,12.1797 1044.15,0 1003.76,0 c -33.33,0 -62.744,10.2734 -88.229,30.8086 -25.48,20.5469 -38.222,53.9883 -38.222,100.2934 0,43.39 11.5,76.664 34.507,99.816 23.004,23.152 52.864,34.734 89.574,34.734 21.8,0 41.44,-3.914 58.91,-11.738"
             inkscape:connector-curvature="0"
             id="path42"
             style="fill:#ffffff;fill-opacity:1;fill-rule:nonzero;stroke:none" /><path
             d="m 1288.56,264.848 c 0.84,-0.078 2.71,-0.196 5.62,-0.344 l 0,-67.102 c -4.13,0.457 -7.81,0.762 -11.02,0.918 -3.22,0.149 -5.83,0.227 -7.81,0.227 -26.36,0 -44.06,-8.574 -53.09,-25.735 -5.06,-9.66 -7.58,-24.523 -7.58,-44.582 l 0,-119.72219 -65.96,0 0,250.48019 62.51,0 0,-43.668 c 10.11,16.7 18.91,28.118 26.42,34.246 12.26,10.262 28.19,15.399 47.8,15.399 1.22,0 2.26,-0.039 3.11,-0.117"
             inkscape:connector-curvature="0"
             id="path44"
             style="fill:#ffffff;fill-opacity:1;fill-rule:nonzero;stroke:none" /><path
             d="m 1327.97,8.50781 0,338.72619 70.33,0 0,-129.148 131.68,0 0,129.148 70.32,0 0,-338.72619 -70.32,0 0,151.21119 -131.68,0 0,-151.21119 -70.33,0"
             inkscape:connector-curvature="0"
             id="path46"
             style="fill:#ffffff;fill-opacity:1;fill-rule:nonzero;stroke:none" /><path
             d="m 1718.88,258.988 0,-150.98 c 0,-14.2463 1.68,-24.9728 5.03,-32.1799 5.95,-12.7148 17.61,-19.0703 34.99,-19.0703 22.26,0 37.5,9.0352 45.73,27.1211 4.27,9.8047 6.4,22.7541 6.4,38.8361 l 0,136.273 66.42,0 0,-250.48019 -63.66,0 0,35.38669 c -0.61,-0.7695 -2.13,-3.0664 -4.58,-6.8906 -2.45,-3.8398 -5.35,-7.207 -8.71,-10.1172 -10.23,-9.1914 -20.12,-15.4687 -29.67,-18.85154 -9.56,-3.35547 -20.75,-5.0586 -33.58,-5.0586 -36.97,0 -61.86,13.33984 -74.71,40.00004 -7.17,14.707 -10.76,36.3789 -10.76,65.0314 l 0,150.98 67.1,0"
             inkscape:connector-curvature="0"
             id="path48"
             style="fill:#ffffff;fill-opacity:1;fill-rule:nonzero;stroke:none" /><path
             d="m 2090.83,76.3008 c 9.42,13.6328 14.14,31.5512 14.14,53.7652 0,17.778 -2.32,32.485 -6.96,44.122 -8.8,22.062 -25.02,33.085 -48.65,33.085 -23.94,0 -40.4,-10.796 -49.36,-32.402 -4.63,-11.48 -6.95,-26.348 -6.95,-44.566 0,-21.457 4.79,-39.2308 14.37,-53.3245 9.58,-14.0977 24.17,-21.1407 43.8,-21.1407 16.98,0 30.19,6.8164 39.61,20.461 z m 54.74,152.5862 c 18.74,-23.75 28.11,-54.383 28.11,-91.922 0,-38.9181 -9.24,-71.172 -27.72,-96.7502 -18.47,-25.5859 -44.28,-38.37886 -77.38,-38.37886 -20.79,0 -37.5,4.13281 -50.13,12.41016 -7.54,4.9023 -15.7,13.4805 -24.48,25.7422 l 0,-31.48049 -64.57,0 0,338.26519 65.49,0 0,-120.418 c 8.33,11.641 17.5,20.532 27.53,26.657 11.86,7.664 26.98,11.492 45.33,11.492 33.14,0 59.09,-11.871 77.82,-35.617"
             inkscape:connector-curvature="0"
             id="path50"
             style="fill:#ffffff;fill-opacity:1;fill-rule:nonzero;stroke:none" /><path
             d="m 2170.18,380.23 10.33,-80.171 c 1.2,-9.297 9.11,-16.254 18.49,-16.254 l 91.46,0 c 9.37,0 17.29,6.957 18.49,16.254 l 10.33,80.171 -74.55,43.04 -74.55,-43.04"
             inkscape:connector-curvature="0"
             id="path52"
             style="fill:#f8a30d;fill-opacity:1;fill-rule:nonzero;stroke:none" /><path
             d="m 2319.28,638.469 -10.33,80.093 c -1.2,9.293 -9.12,16.25 -18.49,16.25 l -91.47,0 c -9.37,0 -17.28,-6.957 -18.48,-16.25 l -10.33,-80.093 74.55,-43.039 74.55,43.039"
             inkscape:connector-curvature="0"
             id="path54"
             style="fill:#f8a30d;fill-opacity:1;fill-rule:nonzero;stroke:none" /><path
             d="m 2393.95,509.348 64.68,49.254 c 7.46,5.683 9.54,16.031 4.84,24.156 l -45.8,79.203 c -4.69,8.113 -14.67,11.48 -23.31,7.867 l -75.08,-31.359 0,-86.082 74.67,-43.039"
             inkscape:connector-curvature="0"
             id="path56"
             style="fill:#f79110;fill-opacity:1;fill-rule:nonzero;stroke:none" /><path
             d="m 2095.76,509.348 -64.6,-49.262 c -7.45,-5.68 -9.52,-16.012 -4.84,-24.129 l 45.65,-79.184 c 4.68,-8.128 14.68,-11.503 23.34,-7.882 l 74.87,31.339 0,86.079 -74.42,43.039"
             inkscape:connector-curvature="0"
             id="path58"
             style="fill:#f79110;fill-opacity:1;fill-rule:nonzero;stroke:none" /><path
             d="m 2319.59,552.598 0,86.078 -74.55,-43.039 74.55,-43.039"
             inkscape:connector-curvature="0"
             id="path60"
             style="fill:#fab40a;fill-opacity:1;fill-rule:nonzero;stroke:none" /><path
             d="m 2170.18,638.469 -74.84,31.336 c -8.66,3.625 -18.66,0.25 -23.34,-7.879 l -45.68,-79.192 c -4.68,-8.113 -2.61,-18.445 4.84,-24.125 l 64.57,-49.261 74.45,43.039 0,86.082"
             inkscape:connector-curvature="0"
             id="path62"
             style="fill:#fab40a;fill-opacity:1;fill-rule:nonzero;stroke:none" /><path
             d="m 2319.28,466.309 0,-86.079 75.1,-31.363 c 8.65,-3.613 18.63,-0.242 23.32,7.871 l 45.77,79.2 c 4.7,8.124 2.62,18.472 -4.84,24.156 l -64.72,49.254 -74.63,-43.039"
             inkscape:connector-curvature="0"
             id="path64"
             style="fill:#fab40a;fill-opacity:1;fill-rule:nonzero;stroke:none" /><path
             d="m 2245.04,423.477 74.55,-43.039 0,86.082 -74.55,-43.043"
             inkscape:connector-curvature="0"
             id="path66"
             style="fill:#f79110;fill-opacity:1;fill-rule:nonzero;stroke:none" /><path
             d="m 2170.49,552.598 -74.55,-43.039 74.55,-43.039 0,86.078"
             inkscape:connector-curvature="0"
             id="path68"
             style="fill:#f8a30d;fill-opacity:1;fill-rule:nonzero;stroke:none" /><path
             d="m 2170,635.211 0,-258.969 225.96,133.106 L 2170,635.211"
             inkscape:connector-curvature="0"
             id="path70"
             style="fill:#ffffff;fill-opacity:1;fill-rule:nonzero;stroke:none" /></g></g></g></g><g
     inkscape:groupmode="layer"
     id="layer1"
     inkscape:label="Guides"
     style="display:none"
     transform="translate(0,-480)"><rect
       style="fill:#0000ff;fill-rule:evenodd;stroke:#000000;stroke-width:0.50879931px;stroke-linecap:butt;stroke-linejoin:miter;stroke-opacity:1"
       id="rect4010"
       width="299.49094"
       height="299.49121"
       x="40.254402"
       y="740.25439" /><rect
       style="fill:#0000ff;fill-rule:evenodd;stroke:#000000;stroke-width:0.50879931px;stroke-linecap:butt;stroke-linejoin:miter;stroke-opacity:1"
       id="rect4010-3"
       width="299.49094"
       height="299.49121"
       x="377.44266"
       y="741.03162" /><rect
       style="fill:#0000ff;fill-rule:evenodd;stroke:#000000;stroke-width:0.50879931px;stroke-linecap:butt;stroke-linejoin:miter;stroke-opacity:1"
       id="rect4010-3-0"
       width="299.49094"
       height="299.49121"
       x="717.80402"
       y="741.03162" /><rect
       y="741.03162"
       x="717.80402"
       height="299.49121"
       width="299.49094"
       id="rect4059"
       style="fill:#0000ff;fill-rule:evenodd;stroke:#000000;stroke-width:0.50879931px;stroke-linecap:butt;stroke-linejoin:miter;stroke-opacity:1" /></g><g
     inkscape:groupmode="layer"
     id="layer2"
     inkscape:label="Logos"
     style="display:inline"
     transform="translate(0,-480)" /><g
     inkscape:groupmode="layer"
     id="layer3"
     inkscape:label="Text"
     style="display:inline"
     transform="translate(0,-480)"><text
       xml:space="preserve"
       style="font-style:normal;font-variant:normal;font-weight:normal;font-stretch:normal;font-size:29.58491898px;line-height:125%;font-family:'ChunkFive Ex';-inkscape-font-specification:'ChunkFive Ex';letter-spacing:0px;word-spacing:0px;display:inline;fill:#ffffff;fill-opacity:1;stroke:none"
       x="397.0386"
       y="610.8739"
       id="text3929-0-1"
       sodipodi:linespacing="125%"
       inkscape:export-filename="C:\github\makerhub\Website\Media\Images\Tutorials\LabVIEW\Basics\export\LabVIEW Basics - 03 - Controls and Indicators 460.png"
       inkscape:export-xdpi="90"
       inkscape:export-ydpi="90"><tspan
         sodipodi:role="line"
         x="407.22287"
         y="610.8739"
         style="font-style:normal;font-variant:normal;font-weight:bold;font-stretch:normal;font-size:73.96230316px;line-height:125%;font-family:'Segoe UI';-inkscape-font-specification:'Segoe UI Bold';text-align:center;text-anchor:middle;fill:#ffffff;fill-opacity:1"
         id="tspan3966-8-4">LabVIEW </tspan><tspan
         sodipodi:role="line"
         x="397.0386"
         y="685.36414"
         style="font-style:normal;font-variant:normal;font-weight:bold;font-stretch:normal;font-size:56.25px;line-height:125%;font-family:'Segoe UI';-inkscape-font-specification:'Segoe UI Bold';text-align:center;text-anchor:middle;fill:#ffffff;fill-opacity:1"
         id="tspan4204">Data Types</tspan></text>
<g
       transform="matrix(0.49027281,0,0,0.49027281,-319.53449,587.93989)"
       style="display:inline"
       id="g4241"><text
         sodipodi:linespacing="125%"
         id="text3250"
         y="666.56366"
         x="1121.9775"
         style="font-style:normal;font-variant:normal;font-weight:normal;font-stretch:normal;font-size:120px;line-height:125%;font-family:'Segoe UI';-inkscape-font-specification:'Segoe UI';letter-spacing:0px;word-spacing:0px;fill:#ffffff;fill-opacity:1;stroke:none"
         xml:space="preserve"><tspan
           style="font-weight:bold"
           y="666.56366"
           x="1121.9775"
           id="tspan3252"
           sodipodi:role="line">abc</tspan></text>
<text
         sodipodi:linespacing="125%"
         id="text3254"
         y="429.9967"
         x="1571.5964"
         style="font-style:normal;font-variant:normal;font-weight:normal;font-stretch:normal;font-size:100px;line-height:125%;font-family:'Segoe UI';-inkscape-font-specification:'Segoe UI';letter-spacing:0px;word-spacing:0px;fill:#ffffff;fill-opacity:1;stroke:none"
         xml:space="preserve"><tspan
           style="font-weight:bold"
           y="429.9967"
           x="1571.5964"
           id="tspan3256"
           sodipodi:role="line">123</tspan></text>
<g
         style="fill:#ffffff"
         transform="matrix(0.68968844,0,0,1,1501.2768,443.38199)"
         id="g3300"><g
           style="fill:#ffffff"
           id="g3259"><g
             style="fill:#ffffff"
             id="list"><path
               sodipodi:nodetypes="cccccccccccccccccccccccccccccc"
               style="fill:#ffffff"
               inkscape:connector-curvature="0"
               d="m 0,195 51,0 0,-31 -51,0 z m 0,62 51,0 0,-31 -51,0 z m 0,-124 51,0 0,-31 -51,0 z m 102,62 357,0 0,-31 -357,0 z m 0,62 357,0 0,-31 -357,0 z m 0,-155 0,31 357,0 0,-31 z"
               id="path3262" /></g></g><g
           style="fill:#ffffff"
           id="g3264" /><g
           style="fill:#ffffff"
           id="g3266" /><g
           style="fill:#ffffff"
           id="g3268" /><g
           style="fill:#ffffff"
           id="g3270" /><g
           style="fill:#ffffff"
           id="g3272" /><g
           style="fill:#ffffff"
           id="g3274" /><g
           style="fill:#ffffff"
           id="g3276" /><g
           style="fill:#ffffff"
           id="g3278" /><g
           style="fill:#ffffff"
           id="g3280" /><g
           style="fill:#ffffff"
           id="g3282" /><g
           style="fill:#ffffff"
           id="g3284" /><g
           style="fill:#ffffff"
           id="g3286" /><g
           style="fill:#ffffff"
           id="g3288" /><g
           style="fill:#ffffff"
           id="g3290" /><g
           style="fill:#ffffff"
           id="g3292" /></g><text
         sodipodi:linespacing="125%"
         id="text3320"
         y="424.01526"
         x="1115.8838"
         style="font-style:normal;font-variant:normal;font-weight:normal;font-stretch:normal;font-size:100px;line-height:125%;font-family:'Segoe UI';-inkscape-font-specification:'Segoe UI';letter-spacing:0px;word-spacing:0px;fill:#000000;fill-opacity:1;stroke:none"
         xml:space="preserve"><tspan
           style="font-weight:bold;font-size:100px;fill:#ffffff"
           y="424.01526"
           x="1115.8838"
           id="tspan3322"
           sodipodi:role="line">T / F</tspan></text>
</g></g></svg>