<?xml version="1.0" encoding="iso-8859-1"?>
<!-- Generator: Adobe Illustrator 16.0.0, SVG Export Plug-In . SVG Version: 6.00 Build 0)  -->
<!DOCTYPE svg PUBLIC "-//W3C//DTD SVG 1.1//EN" "http://www.w3.org/Graphics/SVG/1.1/DTD/svg11.dtd">
<svg version="1.1" id="Capa_1" xmlns="http://www.w3.org/2000/svg" xmlns:xlink="http://www.w3.org/1999/xlink" x="0px" y="0px"
	 width="24px" height="24px" viewBox="0 0 24 24" style="enable-background:new 0 0 24 24;" xml:space="preserve">
<g>
	<path d="M17.7,8.757l-3.722,5.499C13.986,14.323,14,14.389,14,14.457c0,1.104-0.896,2-2,2c-1.104,0-2-0.896-2-2s0.896-2,2-2
		c0.068,0,0.134,0.014,0.201,0.021L17.7,8.757z M12,2.457c-6.617,0-12,5.383-12,12c0,2.525,0.813,5.042,2.29,7.086l1.621-1.172
		c-1.037-1.436-1.676-3.15-1.854-4.914H3v-2H2.051c0.2-2.008,0.998-3.842,2.211-5.324l0.631,0.631L6.307,7.35L5.676,6.719
		C7.158,5.505,8.992,4.708,11,4.508v0.949h2V4.508c2.008,0.2,3.843,0.998,5.324,2.211L17.693,7.35l1.414,1.414l0.631-0.631
		c1.213,1.482,2.011,3.316,2.211,5.324H21v2h0.943c-0.18,1.764-0.817,3.479-1.854,4.914l1.621,1.172
		c1.478-2.044,2.29-4.561,2.29-7.086C24,7.84,18.617,2.457,12,2.457z"/>
</g>
<g>
</g>
<g>
</g>
<g>
</g>
<g>
</g>
<g>
</g>
<g>
</g>
<g>
</g>
<g>
</g>
<g>
</g>
<g>
</g>
<g>
</g>
<g>
</g>
<g>
</g>
<g>
</g>
<g>
</g>
</svg>
