<?xml version="1.0" encoding="utf-8"?>
<!-- Generator: Adobe Illustrator 18.1.1, SVG Export Plug-In . SVG Version: 6.00 Build 0)  -->
<!DOCTYPE svg PUBLIC "-//W3C//DTD SVG 1.1//EN" "http://www.w3.org/Graphics/SVG/1.1/DTD/svg11.dtd">
<svg version="1.1" id="Layer_1" xmlns="http://www.w3.org/2000/svg" xmlns:xlink="http://www.w3.org/1999/xlink" x="0px" y="0px"
	 viewBox="-311 238 26 26" enable-background="new -311 238 26 26" xml:space="preserve">
<path d="M-288.2,242.5c0-2.4-1.9-4.3-4.3-4.3s-4.3,1.9-4.3,4.3c0,1,0.3,1.9,0.9,2.6c0.2-0.7,0.4-1.4,0.7-2c0-0.2-0.1-0.4-0.1-0.6
	c0-1.6,1.3-2.8,2.8-2.8c1.6,0,2.8,1.3,2.8,2.8c0,1-0.6,1.9-1.4,2.4c-0.1,0.6-0.3,1.2-0.5,1.8C-289.6,246.3-288.2,244.6-288.2,242.5z
	"/>
<path d="M-289.4,258.8c-4.2-0.1-5.3,1.7-6.9,2.6c-1.6,0.9-3.4,1-4,2.4l-7.2-2.7c0.6-1.9-1.3-2.9,0.3-8.4c1.3-4.4,3.5-5.4,4.1-5.2
	c0.6,0.2,0.6,0.6,1,0.7c0.4,0.1,0.9-1.1,1.9-0.8c1,0.3,0.9,1.2,1.2,1.3c0.3,0.1,0.6-0.9,1.8-0.5c1,0.3,0.5,1.4,0.8,1.5
	c0.2,0.1,0.6-1.1,1.3-3.8c0.6-2.4,1.3-4.1,2.5-3.7c1.1,0.3,0.9,1.7,0,4.5c-0.6,2.1-1.3,4.4-1.7,5.6c-0.5,1.6-0.7,2.1-0.8,3.3
	c-0.1,0.7,1.3,1.1,2.6,0.9c1.6-0.2,2.8-0.7,3.9,0.5C-287.9,257.6-287.8,258.9-289.4,258.8z"/>
</svg>
