<?xml version="1.0" encoding="utf-8"?>
<!-- Generator: Adobe Illustrator 18.1.1, SVG Export Plug-In . SVG Version: 6.00 Build 0)  -->
<!DOCTYPE svg PUBLIC "-//W3C//DTD SVG 1.1//EN" "http://www.w3.org/Graphics/SVG/1.1/DTD/svg11.dtd">
<svg version="1.1" id="Layer_1" xmlns="http://www.w3.org/2000/svg" xmlns:xlink="http://www.w3.org/1999/xlink" x="0px" y="0px"
	 viewBox="305 230 40 40" enable-background="new 305 230 40 40" xml:space="preserve">
<path d="M305.2,256.2c0,0.9,0.6,1.5,1.5,1.5h9.2c0.9,0,1.5-0.6,1.5-1.5v-4.6h6.2v13.5c0,0.2,0,0.3,0,0.5v0.2l0,0
	c0,0.2,0.2,0.5,0.3,0.6l0,0l0,0c0,0,0,0,0,0.2l0,0l0.2,0.2l0,0c0,0,0,0,0.2,0.2l0,0c0.3,0.2,0.8,0.3,1.2,0.2h10.3v1.5
	c0,0.9,0.6,1.5,1.5,1.5h6.2c0.9,0,1.5-0.6,1.5-1.5v-7.7c0-0.9-0.6-1.5-1.5-1.5h-6.2c-0.9,0-1.5,0.6-1.5,1.5v3.1h-9.2v-12.3h9.2v3.1
	c0,0.2,0,0.5,0.2,0.6c0.2,0.6,0.8,0.9,1.4,0.9h6.2c0.9,0,1.5-0.6,1.5-1.5v-9.2c0-0.9-0.6-1.5-1.5-1.5h-6.2c-0.9,0-1.5,0.6-1.5,1.5
	v3.1h-9.2v-12.3h9.2v3.1c0,0.2,0,0.5,0.2,0.6c0.2,0.6,0.8,0.9,1.4,0.9h6.2c0.9,0,1.5-0.6,1.5-1.5v-7.7c0-0.9-0.6-1.5-1.5-1.5h-6.2
	c-0.9,0-1.5,0.6-1.5,1.5v1.5h-10.5c-0.2,0-0.2,0-0.3,0h-0.2l0,0c0,0,0,0-0.2,0l0,0c0,0,0,0-0.2,0l0,0h-0.2c0,0,0,0-0.2,0.2l0,0
	c-0.2,0-0.3,0.2-0.3,0.3l0,0l-0.2,0.2l0,0c-0.2,0.2-0.2,0.3-0.3,0.5l0,0c0,0.2,0,0.5,0,0.6v13.5h-6.2v-4.6c0-0.9-0.6-1.5-1.5-1.5
	h-9.2c-0.9,0-1.5,0.6-1.5,1.5v12.5H305.2z"/>
</svg>
