<?xml version="1.0" encoding="utf-8"?>
<!-- Generator: Adobe Illustrator 18.1.1, SVG Export Plug-In . SVG Version: 6.00 Build 0)  -->
<!DOCTYPE svg PUBLIC "-//W3C//DTD SVG 1.1//EN" "http://www.w3.org/Graphics/SVG/1.1/DTD/svg11.dtd">
<svg version="1.1" id="Layer_1" xmlns="http://www.w3.org/2000/svg" xmlns:xlink="http://www.w3.org/1999/xlink" x="0px" y="0px"
	 viewBox="0 0 650 500" enable-background="new 0 0 650 500" xml:space="preserve">
<path fill="#FFFFFF" d="M411.5,250c0,48.1-38.5,86.5-86.5,86.5s-86.5-38.5-86.5-86.5s38.5-86.5,86.5-86.5S411.5,201.9,411.5,250z
	 M575,76.9v346.2c0,42.3-34.6,76.9-76.9,76.9H151.9c-42.3,0-76.9-34.6-76.9-76.9V76.9C75,34.6,109.6,0,151.9,0h346.2
	C540.4,0,575,34.6,575,76.9z M517.3,230.8l-61.5-11.5c-3.8-13.5-9.6-26.9-15.4-38.5l34.6-51.9l-26.9-26.9l-53.8,32.7
	c-11.5-7.7-25-13.5-38.5-15.4l-11.5-61.5h-38.5l-11.5,61.5c-15.4,3.8-26.9,9.6-38.5,15.4L201.9,100L175,126.9l34.6,53.8
	c-7.7,11.5-13.5,25-15.4,38.5l-61.5,11.5v38.5l61.5,11.5c3.8,13.5,9.6,26.9,15.4,38.5L175,371.2l26.9,26.9l53.8-32.7
	c11.5,7.7,25,13.5,38.5,15.4l11.5,61.5h38.5l11.5-61.5c13.5-3.8,26.9-9.6,38.5-15.4l51.9,34.6l26.9-26.9l-32.7-53.8
	c7.7-11.5,13.5-25,15.4-38.5l61.5-11.5V230.8z"/>
</svg>
