<?xml version="1.0" encoding="utf-8"?>
<!-- Generator: Adobe Illustrator 18.1.1, SVG Export Plug-In . SVG Version: 6.00 Build 0)  -->
<!DOCTYPE svg PUBLIC "-//W3C//DTD SVG 1.1//EN" "http://www.w3.org/Graphics/SVG/1.1/DTD/svg11.dtd">
<svg version="1.1" id="Layer_1" xmlns="http://www.w3.org/2000/svg" xmlns:xlink="http://www.w3.org/1999/xlink" x="0px" y="0px"
	 viewBox="305 230 40 40" enable-background="new 305 230 40 40" xml:space="preserve">
<path d="M335.2,230c-0.3,0-0.8,0.3-0.9,0.6l-3.2,4.1h-0.2h-3.1c-0.9,0-1.5,0.6-1.5,1.5h-8c1.1,2.5,0.6,4.8,0,6.1h8
	c0,0.9,0.6,1.5,1.5,1.5h3.1h0.2l3.2,4.1c0.5,0.6,1.4,0.8,2,0.3l7.7-4.6c0.8-0.3,1.2-1.2,0.9-2c-0.3-0.8-1.2-1.2-2-0.9
	c-0.2,0-0.3,0.2-0.5,0.3l-6.4,4l-3.4-4.3v-2.8l3.4-4.3l6.4,4c0.6,0.6,1.5,0.5,2.1-0.2c0.6-0.6,0.5-1.5-0.2-2.1
	c-0.2-0.2-0.3-0.3-0.5-0.3l-7.7-4.6C335.8,230,335.5,230,335.2,230z M310.9,233.4c-3.2,0-5.8,2.6-5.8,5.8s2.6,5.8,5.8,5.8
	s5.8-2.6,5.8-5.8S314.1,233.4,310.9,233.4z M310.9,235.8c1.8,0,3.4,1.5,3.4,3.4c0,1.8-1.5,3.4-3.4,3.4c-1.8,0-3.4-1.5-3.4-3.4
	C307.5,237.4,309,235.8,310.9,235.8z M310.9,237.5c-0.9,0-1.7,0.8-1.7,1.7c0,0.9,0.8,1.7,1.7,1.7c0.9,0,1.7-0.8,1.7-1.7
	C312.5,238.3,311.8,237.5,310.9,237.5z M316.8,245c-2.1,2.8-7,3.7-10.4,0.6l9.8,16.7h-6.7c-0.9,0-1.5,0.6-1.5,1.5v4.6
	c0,0.9,0.6,1.5,1.5,1.5H334c0.9,0,1.5-0.6,1.5-1.5v-4.6c0-0.9-0.6-1.5-1.5-1.5h-7L316.8,245z"/>
</svg>
