<?xml version="1.0" encoding="utf-8"?>
<!-- Generator: Adobe Illustrator 18.1.1, SVG Export Plug-In . SVG Version: 6.00 Build 0)  -->
<!DOCTYPE svg PUBLIC "-//W3C//DTD SVG 1.1//EN" "http://www.w3.org/Graphics/SVG/1.1/DTD/svg11.dtd">
<svg version="1.1" id="Layer_1" xmlns="http://www.w3.org/2000/svg" xmlns:xlink="http://www.w3.org/1999/xlink" x="0px" y="0px"
	 viewBox="0 0 650 500" enable-background="new 0 0 650 500" xml:space="preserve">
<path fill="#FFFFFF" d="M-236,238v19.2v115.4v19.2h19.2h115.4h19.2v-19.2V257.2V238h-19.2h-115.4H-236z M-197.5,276.5h76.9v76.9
	h-76.9V276.5z M-178.3,295.7v38.5h38.5v-38.5H-178.3z M-5.2,295.7v38.5H264v-38.5H-5.2z M-236,411.1v19.2v115.4v19.2h19.2h115.4
	h19.2v-19.2V430.3v-19.2h-19.2h-115.4H-236z M-197.5,449.5h76.9v76.9h-76.9V449.5z M-178.3,468.8v38.5h38.5v-38.5H-178.3z
	 M-5.2,468.8v38.5H264v-38.5H-5.2z M-236,584.2v19.2v115.4V738h19.2h115.4h19.2v-19.2V603.4v-19.2h-19.2h-115.4H-236z M-197.5,622.6
	h76.9v76.9h-76.9V622.6z M-5.2,641.8v38.5H264v-38.5H-5.2z"/>
</svg>
